{
  "source": "C:\\Users\\Peter\\Desktop\\stuff\\MIUN\\quantitative_research\\video_compression\\videos\\BVI-HD\\BVI-HD_CDVL_videos\\ORIG\\Surfers_1920x1080_30fps.mp4",
  "output": "C:\\Users\\Peter\\Desktop\\stuff\\MIUN\\quantitative_research\\video_compression\\compressed_videos\\BVI-HD\\hevc\\4\\Surfers_1920x1080_30fps_hevc.mp4",
  "codec": "hevc",
  "ok": "Input #0, mov,mp4,m4a,3gp,3g2,mj2, from 'C:\\Users\\Peter\\Desktop\\stuff\\MIUN\\quantitative_research\\video_compression\\videos\\BVI-HD\\BVI-HD_CDVL_videos\\ORIG\\Surfers_1920x1080_30fps.mp4':\n  Metadata:\n    major_brand     : isom\n    minor_version   : 512\n    compatible_brands: isomiso2avc1mp41\n    encoder         : Lavf54.28.101\n  Duration: 00:00:05.00, start: 0.000000, bitrate: 232762 kb/s\n  Stream #0:0[0x1](und): Video: h264 (High 4:4:4 Predictive) (avc1 / 0x31637661), yuv420p(progressive), 1920x1080, 232759 kb/s, 30 fps, 30 tbr, 30 tbn (default)\n    Metadata:\n      handler_name    : VideoHandler\n      vendor_id       : [0][0][0][0]\n[out#0/mp4 @ 00000260260eabc0] Codec AVOption b:a (set bitrate (in bits/s)) has not been used for any stream. The most likely reason is either wrong type (e.g. a video option with no video streams) or that it is a private option of some decoder which was not actually used for any stream.\nStream mapping:\n  Stream #0:0 -> #0:0 (h264 (native) -> hevc (libx265))\nPress [q] to stop, [?] for help\n[libx265 @ 000002602668a480] Unknown option: \"aq-mode.\nx265 [info]: HEVC encoder version 4.1+190-8f11c33ac\nx265 [info]: build info [Windows][GCC 15.1.0][64 bit] 10bit\nx265 [info]: using cpu capabilities: MMX2 SSE2Fast LZCNT SSSE3 SSE4.2 AVX FMA3 BMI2 AVX2\nx265 [info]: Main 10 profile, Level-4 (Main tier)\nx265 [info]: Thread pool created using 12 threads\nx265 [info]: Slices                              : 1\nx265 [info]: frame threads / pool features       : 3 / wpp(17 rows)\nx265 [info]: Coding QT: max CU size, min CU size : 64 / 8\nx265 [info]: Residual QT: max TU size, max depth : 32 / 1 inter / 1 intra\nx265 [info]: ME / range / subpel / merge         : star / 57 / 3 / 3\nx265 [info]: Keyframe min / max / scenecut / bias  : 25 / 250 / 40 / 5.00 \nx265 [info]: Lookahead / bframes / badapt        : 25 / 4 / 2\nx265 [info]: b-pyramid / weightp / weightb       : 1 / 1 / 0\nx265 [info]: References / ref-limit  cu / depth  : 4 / on / on\nx265 [info]: AQ: mode / str / qg-size / cu-tree  : 2 / 1.0 / 32 / 1\nx265 [info]: Rate Control / qCompress            : ABR-4000 kbps / 0.60\nx265 [info]: VBV/HRD buffer / max-rate / init    : 4000 / 4000 / 0.750\nx265 [info]: tools: rect limit-modes rd=4 psy-rd=2.00 rdoq=2 psy-rdoq=1.00\nx265 [info]: tools: rskip mode=1 signhide tmvp strong-intra-smoothing lslices=4\nx265 [info]: tools: deblock sao dhdr10-info\nOutput #0, mp4, to 'C:\\Users\\Peter\\Desktop\\stuff\\MIUN\\quantitative_research\\video_compression\\compressed_videos\\BVI-HD\\hevc\\4\\Surfers_1920x1080_30fps_hevc.mp4':\n  Metadata:\n    major_brand     : isom\n    minor_version   : 512\n    compatible_brands: isomiso2avc1mp41\n    encoder         : Lavf62.3.100\n  Stream #0:0(und): Video: hevc (hev1 / 0x31766568), yuv420p10le(tv, progressive), 1920x1080, q=2-31, 4000 kb/s, 30 fps, 15360 tbn (default)\n    Metadata:\n      encoder         : Lavc62.11.100 libx265\n      handler_name    : VideoHandler\n      vendor_id       : [0][0][0][0]\n    Side data:\n      cpb: bitrate max/min/avg: 4000000/0/4000000 buffer size: 4000000 vbv_delay: N/A\nframe=    0 fps=0.0 q=0.0 size=       0KiB time=N/A bitrate=N/A speed=N/A elapsed=0:00:00.52    \nframe=    0 fps=0.0 q=0.0 size=       0KiB time=N/A bitrate=N/A speed=N/A elapsed=0:00:01.04    \nframe=    0 fps=0.0 q=0.0 size=       0KiB time=N/A bitrate=N/A speed=N/A elapsed=0:00:01.56    \nframe=    0 fps=0.0 q=0.0 size=       0KiB time=N/A bitrate=N/A speed=N/A elapsed=0:00:02.08    \nframe=    0 fps=0.0 q=0.0 size=       0KiB time=N/A bitrate=N/A speed=N/A elapsed=0:00:02.61    \nframe=    0 fps=0.0 q=0.0 size=       0KiB time=N/A bitrate=N/A speed=N/A elapsed=0:00:03.12    \nframe=    0 fps=0.0 q=0.0 size=       0KiB time=N/A bitrate=N/A speed=N/A elapsed=0:00:03.64    \nframe=    0 fps=0.0 q=0.0 size=       0KiB time=N/A bitrate=N/A speed=N/A elapsed=0:00:04.15    \nframe=    0 fps=0.0 q=0.0 size=       0KiB time=N/A bitrate=N/A speed=N/A elapsed=0:00:04.68    \nframe=    0 fps=0.0 q=0.0 size=       0KiB time=N/A bitrate=N/A speed=N/A elapsed=0:00:05.20    \nframe=    1 fps=0.2 q=31.8 size=       0KiB time=-00:00:00.03 bitrate=N/A speed=N/A elapsed=0:00:05.72    \nframe=    1 fps=0.2 q=31.8 size=       0KiB time=-00:00:00.03 bitrate=N/A speed=N/A elapsed=0:00:06.24    \nframe=    2 fps=0.3 q=34.9 size=       0KiB time=00:00:00.00 bitrate=N/A speed=   0x elapsed=0:00:06.76    \nframe=    3 fps=0.4 q=37.8 size=       0KiB time=00:00:00.03 bitrate=  10.6kbits/s speed=0.00458x elapsed=0:00:07.28    \nframe=    3 fps=0.4 q=37.8 size=       0KiB time=00:00:00.03 bitrate=  10.6kbits/s speed=0.00428x elapsed=0:00:07.79    \nframe=    4 fps=0.5 q=39.4 size=       0KiB time=00:00:00.06 bitrate=   5.3kbits/s speed=0.00802x elapsed=0:00:08.31    \nframe=    4 fps=0.5 q=39.4 size=       0KiB time=00:00:00.06 bitrate=   5.3kbits/s speed=0.00755x elapsed=0:00:08.83    \nframe=    5 fps=0.5 q=38.5 size=       0KiB time=00:00:00.10 bitrate=   3.5kbits/s speed=0.0107x elapsed=0:00:09.33    \nframe=    5 fps=0.5 q=38.5 size=       0KiB time=00:00:00.10 bitrate=   3.5kbits/s speed=0.0101x elapsed=0:00:09.85    \nframe=    6 fps=0.6 q=33.4 size=       0KiB time=00:00:00.13 bitrate=   2.6kbits/s speed=0.0129x elapsed=0:00:10.37    \nframe=    7 fps=0.6 q=36.0 size=       0KiB time=00:00:00.16 bitrate=   2.1kbits/s speed=0.0153x elapsed=0:00:10.88    \nframe=    7 fps=0.6 q=36.0 size=       0KiB time=00:00:00.16 bitrate=   2.1kbits/s speed=0.0146x elapsed=0:00:11.40    \nframe=    7 fps=0.6 q=36.0 size=       0KiB time=00:00:00.16 bitrate=   2.1kbits/s speed=0.014x elapsed=0:00:11.93    \nframe=    7 fps=0.6 q=36.0 size=       0KiB time=00:00:00.16 bitrate=   2.1kbits/s speed=0.0134x elapsed=0:00:12.47    \nframe=    8 fps=0.6 q=36.9 size=       0KiB time=00:00:00.20 bitrate=   1.8kbits/s speed=0.0154x elapsed=0:00:13.00    \nframe=    8 fps=0.6 q=36.9 size=       0KiB time=00:00:00.20 bitrate=   1.8kbits/s speed=0.0148x elapsed=0:00:13.51    \nframe=    8 fps=0.6 q=36.9 size=       0KiB time=00:00:00.20 bitrate=   1.8kbits/s speed=0.0142x elapsed=0:00:14.05    \nframe=    8 fps=0.5 q=36.9 size=       0KiB time=00:00:00.20 bitrate=   1.8kbits/s speed=0.0137x elapsed=0:00:14.57    \nframe=    8 fps=0.5 q=36.9 size=       0KiB time=00:00:00.20 bitrate=   1.8kbits/s speed=0.0133x elapsed=0:00:15.08    \nframe=    8 fps=0.5 q=36.9 size=       0KiB time=00:00:00.20 bitrate=   1.8kbits/s speed=0.0128x elapsed=0:00:15.61    \nframe=    8 fps=0.5 q=36.9 size=       0KiB time=00:00:00.20 bitrate=   1.8kbits/s speed=0.0124x elapsed=0:00:16.14    \nframe=    8 fps=0.5 q=36.9 size=       0KiB time=00:00:00.20 bitrate=   1.8kbits/s speed=0.012x elapsed=0:00:16.66    \nframe=    8 fps=0.5 q=36.9 size=       0KiB time=00:00:00.20 bitrate=   1.8kbits/s speed=0.0116x elapsed=0:00:17.18    \nframe=    8 fps=0.5 q=36.9 size=       0KiB time=00:00:00.20 bitrate=   1.8kbits/s speed=0.0113x elapsed=0:00:17.70    \nframe=    8 fps=0.4 q=36.9 size=       0KiB time=00:00:00.20 bitrate=   1.8kbits/s speed=0.011x elapsed=0:00:18.24    \nframe=    9 fps=0.5 q=35.4 size=       0KiB time=00:00:00.23 bitrate=   1.5kbits/s speed=0.0124x elapsed=0:00:18.78    \nframe=    9 fps=0.5 q=35.4 size=       0KiB time=00:00:00.23 bitrate=   1.5kbits/s speed=0.0121x elapsed=0:00:19.31    \nframe=    9 fps=0.5 q=35.4 size=       0KiB time=00:00:00.23 bitrate=   1.5kbits/s speed=0.0118x elapsed=0:00:19.82    \nframe=   10 fps=0.5 q=31.5 size=       0KiB time=00:00:00.26 bitrate=   1.3kbits/s speed=0.0131x elapsed=0:00:20.36    \nframe=   10 fps=0.5 q=31.5 size=       0KiB time=00:00:00.26 bitrate=   1.3kbits/s speed=0.0128x elapsed=0:00:20.88    \nframe=   11 fps=0.5 q=35.5 size=       0KiB time=00:00:00.26 bitrate=   1.3kbits/s speed=0.0125x elapsed=0:00:21.41    \nframe=   11 fps=0.5 q=35.5 size=       0KiB time=00:00:00.30 bitrate=   1.2kbits/s speed=0.0137x elapsed=0:00:21.94    \nframe=   11 fps=0.5 q=35.5 size=       0KiB time=00:00:00.30 bitrate=   1.2kbits/s speed=0.0134x elapsed=0:00:22.44    \nframe=   11 fps=0.5 q=35.5 size=       0KiB time=00:00:00.30 bitrate=   1.2kbits/s speed=0.0131x elapsed=0:00:22.96    \nframe=   12 fps=0.5 q=36.4 size=       0KiB time=00:00:00.33 bitrate=   1.1kbits/s speed=0.0142x elapsed=0:00:23.50    \nframe=   12 fps=0.5 q=36.4 size=       0KiB time=00:00:00.33 bitrate=   1.1kbits/s speed=0.0139x elapsed=0:00:24.02    \nframe=   12 fps=0.5 q=36.4 size=       0KiB time=00:00:00.33 bitrate=   1.1kbits/s speed=0.0136x elapsed=0:00:24.53    \nframe=   12 fps=0.5 q=36.4 size=       0KiB time=00:00:00.33 bitrate=   1.1kbits/s speed=0.0133x elapsed=0:00:25.05    \nframe=   12 fps=0.5 q=36.4 size=       0KiB time=00:00:00.33 bitrate=   1.1kbits/s speed=0.013x elapsed=0:00:25.59    \nframe=   13 fps=0.5 q=35.4 size=       0KiB time=00:00:00.36 bitrate=   1.0kbits/s speed=0.014x elapsed=0:00:26.12    \nframe=   13 fps=0.5 q=35.4 size=       0KiB time=00:00:00.36 bitrate=   1.0kbits/s speed=0.0138x elapsed=0:00:26.66    \nframe=   13 fps=0.5 q=35.4 size=       0KiB time=00:00:00.36 bitrate=   1.0kbits/s speed=0.0135x elapsed=0:00:27.19    \nframe=   13 fps=0.5 q=35.4 size=       0KiB time=00:00:00.36 bitrate=   1.0kbits/s speed=0.0132x elapsed=0:00:27.69    \nframe=   14 fps=0.5 q=36.1 size=       0KiB time=00:00:00.40 bitrate=   0.9kbits/s speed=0.0142x elapsed=0:00:28.22    \nframe=   14 fps=0.5 q=36.1 size=       0KiB time=00:00:00.40 bitrate=   0.9kbits/s speed=0.0139x elapsed=0:00:28.73    \nframe=   14 fps=0.5 q=36.1 size=       0KiB time=00:00:00.40 bitrate=   0.9kbits/s speed=0.0137x elapsed=0:00:29.27    \nframe=   14 fps=0.5 q=36.1 size=       0KiB time=00:00:00.40 bitrate=   0.9kbits/s speed=0.0134x elapsed=0:00:29.79    \nframe=   15 fps=0.5 q=31.4 size=       0KiB time=00:00:00.43 bitrate=   0.8kbits/s speed=0.0143x elapsed=0:00:30.31    \nframe=   16 fps=0.5 q=34.1 size=       0KiB time=00:00:00.46 bitrate=   0.8kbits/s speed=0.0151x elapsed=0:00:30.83    \nframe=   16 fps=0.5 q=34.1 size=       0KiB time=00:00:00.46 bitrate=   0.8kbits/s speed=0.0149x elapsed=0:00:31.35    \nframe=   16 fps=0.5 q=34.1 size=       0KiB time=00:00:00.46 bitrate=   0.8kbits/s speed=0.0146x elapsed=0:00:31.90    \nframe=   16 fps=0.5 q=34.1 size=       0KiB time=00:00:00.46 bitrate=   0.8kbits/s speed=0.0144x elapsed=0:00:32.44    \nframe=   16 fps=0.5 q=34.1 size=       0KiB time=00:00:00.46 bitrate=   0.8kbits/s speed=0.0142x elapsed=0:00:32.97    \nframe=   17 fps=0.5 q=36.6 size=     256KiB time=00:00:00.50 bitrate=4195.0kbits/s speed=0.0149x elapsed=0:00:33.50    \nframe=   17 fps=0.5 q=36.6 size=     256KiB time=00:00:00.50 bitrate=4195.0kbits/s speed=0.0147x elapsed=0:00:34.02    \nframe=   17 fps=0.5 q=36.6 size=     256KiB time=00:00:00.50 bitrate=4195.0kbits/s speed=0.0145x elapsed=0:00:34.55    \nframe=   17 fps=0.5 q=36.6 size=     256KiB time=00:00:00.50 bitrate=4195.0kbits/s speed=0.0143x elapsed=0:00:35.07    \nframe=   17 fps=0.5 q=36.6 size=     256KiB time=00:00:00.50 bitrate=4195.0kbits/s speed=0.014x elapsed=0:00:35.59    \nframe=   17 fps=0.5 q=36.6 size=     256KiB time=00:00:00.50 bitrate=4195.0kbits/s speed=0.0138x elapsed=0:00:36.12    \nframe=   17 fps=0.5 q=36.6 size=     256KiB time=00:00:00.50 bitrate=4195.0kbits/s speed=0.0136x elapsed=0:00:36.69    \nframe=   17 fps=0.5 q=36.6 size=     256KiB time=00:00:00.50 bitrate=4195.0kbits/s speed=0.0134x elapsed=0:00:37.31    \nframe=   17 fps=0.4 q=36.6 size=     256KiB time=00:00:00.50 bitrate=4195.0kbits/s speed=0.0132x elapsed=0:00:37.89    \nframe=   17 fps=0.4 q=36.6 size=     256KiB time=00:00:00.50 bitrate=4195.0kbits/s speed=0.013x elapsed=0:00:38.43    \nframe=   17 fps=0.4 q=36.6 size=     256KiB time=00:00:00.50 bitrate=4195.0kbits/s speed=0.0128x elapsed=0:00:39.02    \nframe=   17 fps=0.4 q=36.6 size=     256KiB time=00:00:00.50 bitrate=4195.0kbits/s speed=0.0126x elapsed=0:00:39.57    \nframe=   18 fps=0.4 q=36.1 size=     256KiB time=00:00:00.53 bitrate=3932.8kbits/s speed=0.0133x elapsed=0:00:40.12    \nframe=   18 fps=0.4 q=36.1 size=     256KiB time=00:00:00.53 bitrate=3932.8kbits/s speed=0.0131x elapsed=0:00:40.67    \nframe=   18 fps=0.4 q=36.1 size=     256KiB time=00:00:00.53 bitrate=3932.8kbits/s speed=0.0129x elapsed=0:00:41.24    \nframe=   18 fps=0.4 q=36.1 size=     256KiB time=00:00:00.53 bitrate=3932.8kbits/s speed=0.0128x elapsed=0:00:41.79    \nframe=   18 fps=0.4 q=36.1 size=     256KiB time=00:00:00.53 bitrate=3932.8kbits/s speed=0.0126x elapsed=0:00:42.33    \nframe=   18 fps=0.4 q=36.1 size=     256KiB time=00:00:00.53 bitrate=3932.8kbits/s speed=0.0124x elapsed=0:00:42.91    \nframe=   18 fps=0.4 q=36.1 size=     256KiB time=00:00:00.53 bitrate=3932.8kbits/s speed=0.0123x elapsed=0:00:43.45    \nframe=   18 fps=0.4 q=36.1 size=     256KiB time=00:00:00.53 bitrate=3932.8kbits/s speed=0.0121x elapsed=0:00:43.99    \nframe=   18 fps=0.4 q=36.1 size=     256KiB time=00:00:00.53 bitrate=3932.8kbits/s speed=0.012x elapsed=0:00:44.52    \nframe=   18 fps=0.4 q=36.1 size=     256KiB time=00:00:00.53 bitrate=3932.8kbits/s speed=0.0118x elapsed=0:00:45.05    \nframe=   18 fps=0.4 q=36.1 size=     256KiB time=00:00:00.53 bitrate=3932.8kbits/s speed=0.0117x elapsed=0:00:45.61    \nframe=   19 fps=0.4 q=32.0 size=     256KiB time=00:00:00.56 bitrate=3701.5kbits/s speed=0.0123x elapsed=0:00:46.14    \nframe=   19 fps=0.4 q=32.0 size=     256KiB time=00:00:00.56 bitrate=3701.5kbits/s speed=0.0121x elapsed=0:00:46.66    \nframe=   20 fps=0.4 q=33.6 size=     256KiB time=00:00:00.60 bitrate=3495.8kbits/s speed=0.0127x elapsed=0:00:47.18    \nframe=   20 fps=0.4 q=33.6 size=     256KiB time=00:00:00.60 bitrate=3495.8kbits/s speed=0.0126x elapsed=0:00:47.70    \nframe=   21 fps=0.4 q=36.3 size=     256KiB time=00:00:00.63 bitrate=3311.9kbits/s speed=0.0131x elapsed=0:00:48.23    \nframe=   21 fps=0.4 q=36.3 size=     256KiB time=00:00:00.63 bitrate=3311.9kbits/s speed=0.013x elapsed=0:00:48.74    \nframe=   21 fps=0.4 q=36.3 size=     256KiB time=00:00:00.63 bitrate=3311.9kbits/s speed=0.0129x elapsed=0:00:49.26    \nframe=   22 fps=0.4 q=36.4 size=     256KiB time=00:00:00.66 bitrate=3146.3kbits/s speed=0.0134x elapsed=0:00:49.77    \nframe=   22 fps=0.4 q=36.4 size=     256KiB time=00:00:00.66 bitrate=3146.3kbits/s speed=0.0133x elapsed=0:00:50.29    \nframe=   22 fps=0.4 q=36.4 size=     256KiB time=00:00:00.66 bitrate=3146.3kbits/s speed=0.0131x elapsed=0:00:50.81    \nframe=   22 fps=0.4 q=36.4 size=     256KiB time=00:00:00.66 bitrate=3146.3kbits/s speed=0.013x elapsed=0:00:51.35    \nframe=   22 fps=0.4 q=36.4 size=     256KiB time=00:00:00.66 bitrate=3146.3kbits/s speed=0.0129x elapsed=0:00:51.87    \nframe=   22 fps=0.4 q=36.4 size=     256KiB time=00:00:00.66 bitrate=3146.3kbits/s speed=0.0127x elapsed=0:00:52.38    \nframe=   22 fps=0.4 q=36.4 size=     256KiB time=00:00:00.66 bitrate=3146.3kbits/s speed=0.0126x elapsed=0:00:52.89    \nframe=   22 fps=0.4 q=36.4 size=     256KiB time=00:00:00.66 bitrate=3146.3kbits/s speed=0.0125x elapsed=0:00:53.41    \nframe=   23 fps=0.4 q=31.7 size=     256KiB time=00:00:00.70 bitrate=2996.4kbits/s speed=0.013x elapsed=0:00:53.94    \nframe=   24 fps=0.4 q=33.9 size=     256KiB time=00:00:00.73 bitrate=2860.2kbits/s speed=0.0135x elapsed=0:00:54.47    \nframe=   24 fps=0.4 q=33.9 size=     256KiB time=00:00:00.73 bitrate=2860.2kbits/s speed=0.0133x elapsed=0:00:55.00    \nframe=   25 fps=0.5 q=36.5 size=     256KiB time=00:00:00.76 bitrate=2735.9kbits/s speed=0.0138x elapsed=0:00:55.52    \nframe=   25 fps=0.4 q=36.5 size=     256KiB time=00:00:00.76 bitrate=2735.9kbits/s speed=0.0137x elapsed=0:00:56.05    \nframe=   25 fps=0.4 q=36.5 size=     256KiB time=00:00:00.76 bitrate=2735.9kbits/s speed=0.0135x elapsed=0:00:56.58    \nframe=   25 fps=0.4 q=36.5 size=     256KiB time=00:00:00.76 bitrate=2735.9kbits/s speed=0.0134x elapsed=0:00:57.10    \nframe=   25 fps=0.4 q=36.5 size=     256KiB time=00:00:00.76 bitrate=2735.9kbits/s speed=0.0133x elapsed=0:00:57.62    \nframe=   26 fps=0.4 q=36.4 size=     256KiB time=00:00:00.80 bitrate=2621.9kbits/s speed=0.0138x elapsed=0:00:58.13    \nframe=   26 fps=0.4 q=36.4 size=     256KiB time=00:00:00.80 bitrate=2621.9kbits/s speed=0.0136x elapsed=0:00:58.66    \nframe=   26 fps=0.4 q=36.4 size=     256KiB time=00:00:00.80 bitrate=2621.9kbits/s speed=0.0135x elapsed=0:00:59.17    \nframe=   27 fps=0.5 q=32.3 size=     256KiB time=00:00:00.83 bitrate=2517.0kbits/s speed=0.014x elapsed=0:00:59.69    \nframe=   27 fps=0.4 q=32.3 size=     256KiB time=00:00:00.83 bitrate=2517.0kbits/s speed=0.0138x elapsed=0:01:00.20    \nframe=   28 fps=0.5 q=34.7 size=     256KiB time=00:00:00.86 bitrate=2420.2kbits/s speed=0.0143x elapsed=0:01:00.74    \nframe=   28 fps=0.5 q=34.7 size=     256KiB time=00:00:00.86 bitrate=2420.2kbits/s speed=0.0141x elapsed=0:01:01.25    \nframe=   29 fps=0.5 q=36.6 size=     256KiB time=00:00:00.90 bitrate=2330.6kbits/s speed=0.0146x elapsed=0:01:01.75    \nframe=   29 fps=0.5 q=36.6 size=     256KiB time=00:00:00.90 bitrate=2330.6kbits/s speed=0.0145x elapsed=0:01:02.27    \nframe=   29 fps=0.5 q=36.6 size=     256KiB time=00:00:00.90 bitrate=2330.6kbits/s speed=0.0143x elapsed=0:01:02.82    \nframe=   29 fps=0.5 q=36.6 size=     256KiB time=00:00:00.90 bitrate=2330.6kbits/s speed=0.0142x elapsed=0:01:03.33    \nframe=   29 fps=0.5 q=36.6 size=     256KiB time=00:00:00.90 bitrate=2330.6kbits/s speed=0.0141x elapsed=0:01:03.85    \nframe=   29 fps=0.5 q=36.6 size=     256KiB time=00:00:00.90 bitrate=2330.6kbits/s speed=0.014x elapsed=0:01:04.40    \nframe=   30 fps=0.5 q=36.4 size=     256KiB time=00:00:00.93 bitrate=2247.3kbits/s speed=0.0144x elapsed=0:01:04.94    \nframe=   30 fps=0.5 q=36.4 size=     256KiB time=00:00:00.93 bitrate=2247.3kbits/s speed=0.0142x elapsed=0:01:05.50    \nframe=   30 fps=0.5 q=36.4 size=     256KiB time=00:00:00.93 bitrate=2247.3kbits/s speed=0.0141x elapsed=0:01:06.01    \nframe=   30 fps=0.5 q=36.4 size=     256KiB time=00:00:00.93 bitrate=2247.3kbits/s speed=0.014x elapsed=0:01:06.53    \nframe=   30 fps=0.4 q=36.4 size=     256KiB time=00:00:00.93 bitrate=2247.3kbits/s speed=0.0139x elapsed=0:01:07.05    \nframe=   30 fps=0.4 q=36.4 size=     256KiB time=00:00:00.93 bitrate=2247.3kbits/s speed=0.0138x elapsed=0:01:07.58    \nframe=   30 fps=0.4 q=36.4 size=     256KiB time=00:00:00.93 bitrate=2247.3kbits/s speed=0.0137x elapsed=0:01:08.14    \nframe=   31 fps=0.5 q=31.9 size=     256KiB time=00:00:00.96 bitrate=2169.8kbits/s speed=0.0141x elapsed=0:01:08.67    \nframe=   31 fps=0.4 q=31.9 size=     256KiB time=00:00:00.96 bitrate=2169.8kbits/s speed=0.014x elapsed=0:01:09.19    \nframe=   32 fps=0.5 q=34.3 size=     512KiB time=00:00:01.00 bitrate=4194.7kbits/s speed=0.0143x elapsed=0:01:09.71    \nframe=   32 fps=0.5 q=34.3 size=     512KiB time=00:00:01.00 bitrate=4194.7kbits/s speed=0.0142x elapsed=0:01:10.23    \nframe=   32 fps=0.5 q=34.3 size=     512KiB time=00:00:01.00 bitrate=4194.7kbits/s speed=0.0141x elapsed=0:01:10.74    \nframe=   33 fps=0.5 q=36.0 size=     512KiB time=00:00:01.03 bitrate=4059.3kbits/s speed=0.0145x elapsed=0:01:11.26    \nframe=   33 fps=0.5 q=36.0 size=     512KiB time=00:00:01.03 bitrate=4059.3kbits/s speed=0.0144x elapsed=0:01:11.77    \nframe=   33 fps=0.5 q=36.0 size=     512KiB time=00:00:01.03 bitrate=4059.3kbits/s speed=0.0143x elapsed=0:01:12.30    \nframe=   34 fps=0.5 q=36.0 size=     512KiB time=00:00:01.06 bitrate=3932.5kbits/s speed=0.0146x elapsed=0:01:12.82    \nframe=   34 fps=0.5 q=36.0 size=     512KiB time=00:00:01.06 bitrate=3932.5kbits/s speed=0.0145x elapsed=0:01:13.34    \nframe=   34 fps=0.5 q=36.0 size=     512KiB time=00:00:01.06 bitrate=3932.5kbits/s speed=0.0144x elapsed=0:01:13.86    \nframe=   34 fps=0.5 q=36.0 size=     512KiB time=00:00:01.06 bitrate=3932.5kbits/s speed=0.0143x elapsed=0:01:14.40    \nframe=   34 fps=0.5 q=36.0 size=     512KiB time=00:00:01.06 bitrate=3932.5kbits/s speed=0.0142x elapsed=0:01:14.93    \nframe=   34 fps=0.5 q=36.0 size=     512KiB time=00:00:01.06 bitrate=3932.5kbits/s speed=0.0141x elapsed=0:01:15.46    \nframe=   34 fps=0.4 q=36.0 size=     512KiB time=00:00:01.06 bitrate=3932.5kbits/s speed=0.014x elapsed=0:01:16.00    \nframe=   34 fps=0.4 q=36.0 size=     512KiB time=00:00:01.06 bitrate=3932.5kbits/s speed=0.0139x elapsed=0:01:16.54    \nframe=   34 fps=0.4 q=36.0 size=     512KiB time=00:00:01.06 bitrate=3932.5kbits/s speed=0.0138x elapsed=0:01:17.06    \nframe=   34 fps=0.4 q=36.0 size=     512KiB time=00:00:01.06 bitrate=3932.5kbits/s speed=0.0138x elapsed=0:01:17.57    \nframe=   35 fps=0.4 q=32.0 size=     512KiB time=00:00:01.10 bitrate=3813.3kbits/s speed=0.0141x elapsed=0:01:18.10    \nframe=   35 fps=0.4 q=32.0 size=     512KiB time=00:00:01.10 bitrate=3813.3kbits/s speed=0.014x elapsed=0:01:18.64    \nframe=   35 fps=0.4 q=32.0 size=     512KiB time=00:00:01.10 bitrate=3813.3kbits/s speed=0.0139x elapsed=0:01:19.18    \nframe=   36 fps=0.5 q=34.4 size=     512KiB time=00:00:01.13 bitrate=3701.2kbits/s speed=0.0142x elapsed=0:01:19.81    \nframe=   36 fps=0.4 q=34.4 size=     512KiB time=00:00:01.13 bitrate=3701.2kbits/s speed=0.0141x elapsed=0:01:20.37    \nframe=   36 fps=0.4 q=34.4 size=     512KiB time=00:00:01.13 bitrate=3701.2kbits/s speed=0.014x elapsed=0:01:20.95    \nframe=   36 fps=0.4 q=34.4 size=     512KiB time=00:00:01.13 bitrate=3701.2kbits/s speed=0.0139x elapsed=0:01:21.48    \nframe=   36 fps=0.4 q=34.4 size=     512KiB time=00:00:01.13 bitrate=3701.2kbits/s speed=0.0138x elapsed=0:01:22.00    \nframe=   36 fps=0.4 q=34.4 size=     512KiB time=00:00:01.13 bitrate=3701.2kbits/s speed=0.0137x elapsed=0:01:22.54    \nframe=   36 fps=0.4 q=34.4 size=     512KiB time=00:00:01.13 bitrate=3701.2kbits/s speed=0.0136x elapsed=0:01:23.06    \nframe=   36 fps=0.4 q=34.4 size=     512KiB time=00:00:01.13 bitrate=3701.2kbits/s speed=0.0136x elapsed=0:01:23.59    \nframe=   37 fps=0.4 q=36.7 size=     512KiB time=00:00:01.16 bitrate=3595.4kbits/s speed=0.0139x elapsed=0:01:24.13    \nframe=   37 fps=0.4 q=36.7 size=     512KiB time=00:00:01.16 bitrate=3595.4kbits/s speed=0.0138x elapsed=0:01:24.66    \nframe=   37 fps=0.4 q=36.7 size=     512KiB time=00:00:01.16 bitrate=3595.4kbits/s speed=0.0137x elapsed=0:01:25.18    \nframe=   37 fps=0.4 q=36.7 size=     512KiB time=00:00:01.16 bitrate=3595.4kbits/s speed=0.0136x elapsed=0:01:25.70    \nframe=   37 fps=0.4 q=36.7 size=     512KiB time=00:00:01.16 bitrate=3595.4kbits/s speed=0.0135x elapsed=0:01:26.26    \nframe=   37 fps=0.4 q=36.7 size=     512KiB time=00:00:01.16 bitrate=3595.4kbits/s speed=0.0134x elapsed=0:01:26.81    \nframe=   37 fps=0.4 q=36.7 size=     512KiB time=00:00:01.16 bitrate=3595.4kbits/s speed=0.0134x elapsed=0:01:27.34    \nframe=   37 fps=0.4 q=36.7 size=     512KiB time=00:00:01.16 bitrate=3595.4kbits/s speed=0.0133x elapsed=0:01:27.92    \nframe=   37 fps=0.4 q=36.7 size=     512KiB time=00:00:01.16 bitrate=3595.4kbits/s speed=0.0132x elapsed=0:01:28.49    \nframe=   37 fps=0.4 q=36.7 size=     512KiB time=00:00:01.16 bitrate=3595.4kbits/s speed=0.0131x elapsed=0:01:29.07    \nframe=   37 fps=0.4 q=36.7 size=     512KiB time=00:00:01.16 bitrate=3595.4kbits/s speed=0.013x elapsed=0:01:29.71    \nframe=   37 fps=0.4 q=36.7 size=     512KiB time=00:00:01.16 bitrate=3595.4kbits/s speed=0.0129x elapsed=0:01:30.32    \nframe=   37 fps=0.4 q=36.7 size=     512KiB time=00:00:01.16 bitrate=3595.4kbits/s speed=0.0128x elapsed=0:01:30.85    \nframe=   38 fps=0.4 q=36.1 size=     512KiB time=00:00:01.20 bitrate=3495.5kbits/s speed=0.0131x elapsed=0:01:31.37    \nframe=   38 fps=0.4 q=36.1 size=     512KiB time=00:00:01.20 bitrate=3495.5kbits/s speed=0.0131x elapsed=0:01:31.92    \nframe=   38 fps=0.4 q=36.1 size=     512KiB time=00:00:01.20 bitrate=3495.5kbits/s speed=0.013x elapsed=0:01:32.47    \nframe=   39 fps=0.4 q=31.8 size=     512KiB time=00:00:01.23 bitrate=3401.1kbits/s speed=0.0133x elapsed=0:01:33.03    \nframe=   39 fps=0.4 q=31.8 size=     512KiB time=00:00:01.23 bitrate=3401.1kbits/s speed=0.0132x elapsed=0:01:33.56    \nframe=   39 fps=0.4 q=31.8 size=     512KiB time=00:00:01.23 bitrate=3401.1kbits/s speed=0.0131x elapsed=0:01:34.07    \nframe=   39 fps=0.4 q=31.8 size=     512KiB time=00:00:01.23 bitrate=3401.1kbits/s speed=0.013x elapsed=0:01:34.59    \nframe=   40 fps=0.4 q=34.0 size=     512KiB time=00:00:01.26 bitrate=3311.6kbits/s speed=0.0133x elapsed=0:01:35.10    \nframe=   40 fps=0.4 q=34.0 size=     512KiB time=00:00:01.26 bitrate=3311.6kbits/s speed=0.0132x elapsed=0:01:35.61    \nframe=   40 fps=0.4 q=34.0 size=     512KiB time=00:00:01.26 bitrate=3311.6kbits/s speed=0.0132x elapsed=0:01:36.13    \nframe=   40 fps=0.4 q=34.0 size=     512KiB time=00:00:01.26 bitrate=3311.6kbits/s speed=0.0131x elapsed=0:01:36.65    \nframe=   41 fps=0.4 q=36.5 size=     512KiB time=00:00:01.30 bitrate=3226.7kbits/s speed=0.0134x elapsed=0:01:37.16    \nframe=   41 fps=0.4 q=36.5 size=     512KiB time=00:00:01.30 bitrate=3226.7kbits/s speed=0.0133x elapsed=0:01:37.68    \nframe=   41 fps=0.4 q=36.5 size=     512KiB time=00:00:01.30 bitrate=3226.7kbits/s speed=0.0132x elapsed=0:01:38.22    \nframe=   41 fps=0.4 q=36.5 size=     512KiB time=00:00:01.30 bitrate=3226.7kbits/s speed=0.0132x elapsed=0:01:38.74    \nframe=   41 fps=0.4 q=36.5 size=     512KiB time=00:00:01.30 bitrate=3226.7kbits/s speed=0.0131x elapsed=0:01:39.26    \nframe=   41 fps=0.4 q=36.5 size=     512KiB time=00:00:01.30 bitrate=3226.7kbits/s speed=0.013x elapsed=0:01:39.80    \nframe=   42 fps=0.4 q=32.6 size=     512KiB time=00:00:01.33 bitrate=3146.0kbits/s speed=0.0133x elapsed=0:01:40.32    \nframe=   42 fps=0.4 q=32.6 size=     512KiB time=00:00:01.33 bitrate=3146.0kbits/s speed=0.0132x elapsed=0:01:40.85    \nframe=   43 fps=0.4 q=34.0 size=     512KiB time=00:00:01.36 bitrate=3069.3kbits/s speed=0.0135x elapsed=0:01:41.39    \nframe=   43 fps=0.4 q=34.0 size=     512KiB time=00:00:01.36 bitrate=3069.3kbits/s speed=0.0134x elapsed=0:01:41.90    \nframe=   44 fps=0.4 q=36.3 size=     512KiB time=00:00:01.40 bitrate=2996.2kbits/s speed=0.0137x elapsed=0:01:42.41    \nframe=   44 fps=0.4 q=36.3 size=     512KiB time=00:00:01.40 bitrate=2996.2kbits/s speed=0.0136x elapsed=0:01:42.93    \nframe=   44 fps=0.4 q=36.3 size=     512KiB time=00:00:01.40 bitrate=2996.2kbits/s speed=0.0135x elapsed=0:01:43.50    \nframe=   44 fps=0.4 q=36.3 size=     512KiB time=00:00:01.40 bitrate=2996.2kbits/s speed=0.0135x elapsed=0:01:44.05    \nframe=   44 fps=0.4 q=36.3 size=     512KiB time=00:00:01.40 bitrate=2996.2kbits/s speed=0.0134x elapsed=0:01:44.60    \nframe=   44 fps=0.4 q=36.3 size=     512KiB time=00:00:01.40 bitrate=2996.2kbits/s speed=0.0133x elapsed=0:01:45.12    \nframe=   44 fps=0.4 q=36.3 size=     512KiB time=00:00:01.40 bitrate=2996.2kbits/s speed=0.0132x elapsed=0:01:45.67    \nframe=   45 fps=0.4 q=36.6 size=     512KiB time=00:00:01.43 bitrate=2926.5kbits/s speed=0.0135x elapsed=0:01:46.23    \nframe=   45 fps=0.4 q=36.6 size=     512KiB time=00:00:01.43 bitrate=2926.5kbits/s speed=0.0134x elapsed=0:01:46.77    \nframe=   45 fps=0.4 q=36.6 size=     512KiB time=00:00:01.43 bitrate=2926.5kbits/s speed=0.0134x elapsed=0:01:47.30    \nframe=   45 fps=0.4 q=36.6 size=     512KiB time=00:00:01.43 bitrate=2926.5kbits/s speed=0.0133x elapsed=0:01:47.86    \nframe=   45 fps=0.4 q=36.6 size=     512KiB time=00:00:01.43 bitrate=2926.5kbits/s speed=0.0132x elapsed=0:01:48.40    \nframe=   45 fps=0.4 q=36.6 size=     512KiB time=00:00:01.43 bitrate=2926.5kbits/s speed=0.0132x elapsed=0:01:48.93    \nframe=   45 fps=0.4 q=36.6 size=     512KiB time=00:00:01.43 bitrate=2926.5kbits/s speed=0.0131x elapsed=0:01:49.51    \nframe=   45 fps=0.4 q=36.6 size=     512KiB time=00:00:01.43 bitrate=2926.5kbits/s speed=0.013x elapsed=0:01:50.08    \nframe=   45 fps=0.4 q=36.6 size=     512KiB time=00:00:01.43 bitrate=2926.5kbits/s speed=0.0129x elapsed=0:01:50.69    \nframe=   45 fps=0.4 q=36.6 size=     512KiB time=00:00:01.43 bitrate=2926.5kbits/s speed=0.0129x elapsed=0:01:51.27    \nframe=   45 fps=0.4 q=36.6 size=     512KiB time=00:00:01.43 bitrate=2926.5kbits/s speed=0.0128x elapsed=0:01:51.83    \nframe=   45 fps=0.4 q=36.6 size=     512KiB time=00:00:01.43 bitrate=2926.5kbits/s speed=0.0127x elapsed=0:01:52.44    \nframe=   45 fps=0.4 q=36.6 size=     512KiB time=00:00:01.43 bitrate=2926.5kbits/s speed=0.0127x elapsed=0:01:53.02    \nframe=   45 fps=0.4 q=36.6 size=     512KiB time=00:00:01.43 bitrate=2926.5kbits/s speed=0.0126x elapsed=0:01:53.60    \nframe=   45 fps=0.4 q=36.6 size=     512KiB time=00:00:01.43 bitrate=2926.5kbits/s speed=0.0126x elapsed=0:01:54.14    \nframe=   46 fps=0.4 q=31.5 size=     512KiB time=00:00:01.46 bitrate=2860.0kbits/s speed=0.0128x elapsed=0:01:54.66    \nframe=   46 fps=0.4 q=31.5 size=     512KiB time=00:00:01.46 bitrate=2860.0kbits/s speed=0.0127x elapsed=0:01:55.29    \nframe=   46 fps=0.4 q=31.5 size=     512KiB time=00:00:01.46 bitrate=2860.0kbits/s speed=0.0127x elapsed=0:01:55.86    \nframe=   46 fps=0.4 q=31.5 size=     512KiB time=00:00:01.46 bitrate=2860.0kbits/s speed=0.0126x elapsed=0:01:56.38    \nframe=   46 fps=0.4 q=31.5 size=     512KiB time=00:00:01.46 bitrate=2860.0kbits/s speed=0.0125x elapsed=0:01:56.92    \nframe=   46 fps=0.4 q=31.5 size=     512KiB time=00:00:01.46 bitrate=2860.0kbits/s speed=0.0125x elapsed=0:01:57.52    \nframe=   46 fps=0.4 q=31.5 size=     512KiB time=00:00:01.46 bitrate=2860.0kbits/s speed=0.0124x elapsed=0:01:58.11    \nframe=   47 fps=0.4 q=34.1 size=     512KiB time=00:00:01.50 bitrate=2796.4kbits/s speed=0.0126x elapsed=0:01:58.69    \nframe=   47 fps=0.4 q=34.1 size=     512KiB time=00:00:01.50 bitrate=2796.4kbits/s speed=0.0126x elapsed=0:01:59.27    \nframe=   47 fps=0.4 q=34.1 size=     512KiB time=00:00:01.50 bitrate=2796.4kbits/s speed=0.0125x elapsed=0:01:59.87    \nframe=   47 fps=0.4 q=34.1 size=     512KiB time=00:00:01.50 bitrate=2796.4kbits/s speed=0.0125x elapsed=0:02:00.40    \nframe=   47 fps=0.4 q=34.1 size=     512KiB time=00:00:01.50 bitrate=2796.4kbits/s speed=0.0124x elapsed=0:02:00.96    \nframe=   47 fps=0.4 q=34.1 size=     512KiB time=00:00:01.50 bitrate=2796.4kbits/s speed=0.0123x elapsed=0:02:01.52    \nframe=   47 fps=0.4 q=34.1 size=     512KiB time=00:00:01.50 bitrate=2796.4kbits/s speed=0.0123x elapsed=0:02:02.12    \nframe=   47 fps=0.4 q=34.1 size=     512KiB time=00:00:01.50 bitrate=2796.4kbits/s speed=0.0122x elapsed=0:02:02.66    \nframe=   47 fps=0.4 q=34.1 size=     512KiB time=00:00:01.50 bitrate=2796.4kbits/s speed=0.0122x elapsed=0:02:03.20    \nframe=   47 fps=0.4 q=34.1 size=     512KiB time=00:00:01.50 bitrate=2796.4kbits/s speed=0.0121x elapsed=0:02:03.75    \nframe=   48 fps=0.4 q=36.5 size=     768KiB time=00:00:01.53 bitrate=4103.4kbits/s speed=0.0123x elapsed=0:02:04.27    \nframe=   48 fps=0.4 q=36.5 size=     768KiB time=00:00:01.53 bitrate=4103.4kbits/s speed=0.0123x elapsed=0:02:04.81    \nframe=   48 fps=0.4 q=36.5 size=     768KiB time=00:00:01.53 bitrate=4103.4kbits/s speed=0.0122x elapsed=0:02:05.37    \nframe=   48 fps=0.4 q=36.5 size=     768KiB time=00:00:01.53 bitrate=4103.4kbits/s speed=0.0122x elapsed=0:02:05.90    \nframe=   48 fps=0.4 q=36.5 size=     768KiB time=00:00:01.53 bitrate=4103.4kbits/s speed=0.0121x elapsed=0:02:06.44    \nframe=   48 fps=0.4 q=36.5 size=     768KiB time=00:00:01.53 bitrate=4103.4kbits/s speed=0.0121x elapsed=0:02:07.00    \nframe=   48 fps=0.4 q=36.5 size=     768KiB time=00:00:01.53 bitrate=4103.4kbits/s speed=0.012x elapsed=0:02:07.58    \nframe=   48 fps=0.4 q=36.5 size=     768KiB time=00:00:01.53 bitrate=4103.4kbits/s speed=0.012x elapsed=0:02:08.09    \nframe=   48 fps=0.4 q=36.5 size=     768KiB time=00:00:01.53 bitrate=4103.4kbits/s speed=0.0119x elapsed=0:02:08.63    \nframe=   48 fps=0.4 q=36.5 size=     768KiB time=00:00:01.53 bitrate=4103.4kbits/s speed=0.0119x elapsed=0:02:09.14    \nframe=   49 fps=0.4 q=36.5 size=     768KiB time=00:00:01.56 bitrate=4016.0kbits/s speed=0.0121x elapsed=0:02:09.66    \nframe=   49 fps=0.4 q=36.5 size=     768KiB time=00:00:01.56 bitrate=4016.0kbits/s speed=0.012x elapsed=0:02:10.19    \nframe=   49 fps=0.4 q=36.5 size=     768KiB time=00:00:01.56 bitrate=4016.0kbits/s speed=0.012x elapsed=0:02:10.76    \nframe=   49 fps=0.4 q=36.5 size=     768KiB time=00:00:01.56 bitrate=4016.0kbits/s speed=0.0119x elapsed=0:02:11.35    \nframe=   49 fps=0.4 q=36.5 size=     768KiB time=00:00:01.56 bitrate=4016.0kbits/s speed=0.0119x elapsed=0:02:11.91    \nframe=   49 fps=0.4 q=36.5 size=     768KiB time=00:00:01.56 bitrate=4016.0kbits/s speed=0.0118x elapsed=0:02:12.48    \nframe=   49 fps=0.4 q=36.5 size=     768KiB time=00:00:01.56 bitrate=4016.0kbits/s speed=0.0118x elapsed=0:02:13.01    \nframe=   49 fps=0.4 q=36.5 size=     768KiB time=00:00:01.56 bitrate=4016.0kbits/s speed=0.0117x elapsed=0:02:13.53    \nframe=   49 fps=0.4 q=36.5 size=     768KiB time=00:00:01.56 bitrate=4016.0kbits/s speed=0.0117x elapsed=0:02:14.05    \nframe=   49 fps=0.4 q=36.5 size=     768KiB time=00:00:01.56 bitrate=4016.0kbits/s speed=0.0116x elapsed=0:02:14.60    \nframe=   49 fps=0.4 q=36.5 size=     768KiB time=00:00:01.56 bitrate=4016.0kbits/s speed=0.0116x elapsed=0:02:15.12    \nframe=   50 fps=0.4 q=32.0 size=     768KiB time=00:00:01.60 bitrate=3932.4kbits/s speed=0.0118x elapsed=0:02:15.65    \nframe=   51 fps=0.4 q=34.8 size=     768KiB time=00:00:01.63 bitrate=3852.1kbits/s speed=0.012x elapsed=0:02:16.18    \nframe=   51 fps=0.4 q=34.8 size=     768KiB time=00:00:01.63 bitrate=3852.1kbits/s speed=0.0119x elapsed=0:02:16.71    \nframe=   51 fps=0.4 q=34.8 size=     768KiB time=00:00:01.63 bitrate=3852.1kbits/s speed=0.0119x elapsed=0:02:17.23    \nframe=   52 fps=0.4 q=36.7 size=     768KiB time=00:00:01.66 bitrate=3775.1kbits/s speed=0.0121x elapsed=0:02:17.74    \nframe=   52 fps=0.4 q=36.7 size=     768KiB time=00:00:01.66 bitrate=3775.1kbits/s speed=0.0121x elapsed=0:02:18.26    \nframe=   52 fps=0.4 q=36.7 size=     768KiB time=00:00:01.66 bitrate=3775.1kbits/s speed=0.012x elapsed=0:02:18.79    \nframe=   52 fps=0.4 q=36.7 size=     768KiB time=00:00:01.66 bitrate=3775.1kbits/s speed=0.012x elapsed=0:02:19.31    \nframe=   53 fps=0.4 q=36.3 size=     768KiB time=00:00:01.70 bitrate=3701.1kbits/s speed=0.0122x elapsed=0:02:19.83    \nframe=   53 fps=0.4 q=36.3 size=     768KiB time=00:00:01.70 bitrate=3701.1kbits/s speed=0.0121x elapsed=0:02:20.36    \nframe=   53 fps=0.4 q=36.3 size=     768KiB time=00:00:01.70 bitrate=3701.1kbits/s speed=0.0121x elapsed=0:02:20.89    \nframe=   53 fps=0.4 q=36.3 size=     768KiB time=00:00:01.70 bitrate=3701.1kbits/s speed=0.012x elapsed=0:02:21.40    \nframe=   53 fps=0.4 q=36.3 size=     768KiB time=00:00:01.70 bitrate=3701.1kbits/s speed=0.012x elapsed=0:02:21.94    \nframe=   53 fps=0.4 q=36.3 size=     768KiB time=00:00:01.70 bitrate=3701.1kbits/s speed=0.0119x elapsed=0:02:22.48    \nframe=   53 fps=0.4 q=36.3 size=     768KiB time=00:00:01.70 bitrate=3701.1kbits/s speed=0.0119x elapsed=0:02:23.01    \nframe=   54 fps=0.4 q=36.2 size=     768KiB time=00:00:01.73 bitrate=3629.9kbits/s speed=0.0121x elapsed=0:02:23.54    \nframe=   54 fps=0.4 q=36.2 size=     768KiB time=00:00:01.73 bitrate=3629.9kbits/s speed=0.012x elapsed=0:02:24.07    \nframe=   55 fps=0.4 q=32.0 size=     768KiB time=00:00:01.76 bitrate=3561.4kbits/s speed=0.0122x elapsed=0:02:24.60    \nframe=   55 fps=0.4 q=32.0 size=     768KiB time=00:00:01.76 bitrate=3561.4kbits/s speed=0.0122x elapsed=0:02:25.13    \nframe=   55 fps=0.4 q=32.0 size=     768KiB time=00:00:01.76 bitrate=3561.4kbits/s speed=0.0121x elapsed=0:02:25.65    \nframe=   56 fps=0.4 q=35.1 size=     768KiB time=00:00:01.80 bitrate=3495.4kbits/s speed=0.0123x elapsed=0:02:26.17    \nframe=   56 fps=0.4 q=35.1 size=     768KiB time=00:00:01.80 bitrate=3495.4kbits/s speed=0.0123x elapsed=0:02:26.68    \nframe=   56 fps=0.4 q=35.1 size=     768KiB time=00:00:01.80 bitrate=3495.4kbits/s speed=0.0122x elapsed=0:02:27.20    \nframe=   56 fps=0.4 q=35.1 size=     768KiB time=00:00:01.80 bitrate=3495.4kbits/s speed=0.0122x elapsed=0:02:27.73    \nframe=   57 fps=0.4 q=36.4 size=     768KiB time=00:00:01.83 bitrate=3431.9kbits/s speed=0.0124x elapsed=0:02:28.24    \nframe=   57 fps=0.4 q=36.4 size=     768KiB time=00:00:01.83 bitrate=3431.9kbits/s speed=0.0123x elapsed=0:02:28.75    \nframe=   57 fps=0.4 q=36.4 size=     768KiB time=00:00:01.83 bitrate=3431.9kbits/s speed=0.0123x elapsed=0:02:29.27    \nframe=   57 fps=0.4 q=36.4 size=     768KiB time=00:00:01.83 bitrate=3431.9kbits/s speed=0.0122x elapsed=0:02:29.79    \nframe=   58 fps=0.4 q=32.7 size=     768KiB time=00:00:01.86 bitrate=3370.6kbits/s speed=0.0124x elapsed=0:02:30.33    \nframe=   58 fps=0.4 q=32.7 size=     768KiB time=00:00:01.86 bitrate=3370.6kbits/s speed=0.0124x elapsed=0:02:30.85    \nframe=   59 fps=0.4 q=34.5 size=     768KiB time=00:00:01.90 bitrate=3311.5kbits/s speed=0.0126x elapsed=0:02:31.38    \nframe=   61 fps=0.4 q=36.7 size=     768KiB time=00:00:01.96 bitrate=3199.2kbits/s speed=0.0129x elapsed=0:02:31.90    \nframe=   61 fps=0.4 q=36.7 size=     768KiB time=00:00:01.96 bitrate=3199.2kbits/s speed=0.0129x elapsed=0:02:32.44    \nframe=   61 fps=0.4 q=36.7 size=     768KiB time=00:00:01.96 bitrate=3199.2kbits/s speed=0.0129x elapsed=0:02:33.00    \nframe=   61 fps=0.4 q=36.7 size=     768KiB time=00:00:01.96 bitrate=3199.2kbits/s speed=0.0128x elapsed=0:02:33.57    \nframe=   61 fps=0.4 q=36.7 size=     768KiB time=00:00:01.96 bitrate=3199.2kbits/s speed=0.0128x elapsed=0:02:34.10    \nframe=   61 fps=0.4 q=36.7 size=     768KiB time=00:00:01.96 bitrate=3199.2kbits/s speed=0.0127x elapsed=0:02:34.60    \nframe=   62 fps=0.4 q=33.2 size=     768KiB time=00:00:02.00 bitrate=3145.9kbits/s speed=0.0129x elapsed=0:02:35.12    \nframe=   62 fps=0.4 q=33.2 size=     768KiB time=00:00:02.00 bitrate=3145.9kbits/s speed=0.0129x elapsed=0:02:35.63    \nframe=   62 fps=0.4 q=33.2 size=     768KiB time=00:00:02.00 bitrate=3145.9kbits/s speed=0.0128x elapsed=0:02:36.16    \nframe=   62 fps=0.4 q=33.2 size=     768KiB time=00:00:02.00 bitrate=3145.9kbits/s speed=0.0128x elapsed=0:02:36.69    \nframe=   63 fps=0.4 q=33.9 size=    1024KiB time=00:00:02.03 bitrate=4125.7kbits/s speed=0.0129x elapsed=0:02:37.21    \nframe=   63 fps=0.4 q=33.9 size=    1024KiB time=00:00:02.03 bitrate=4125.7kbits/s speed=0.0129x elapsed=0:02:37.73    \nframe=   63 fps=0.4 q=33.9 size=    1024KiB time=00:00:02.03 bitrate=4125.7kbits/s speed=0.0128x elapsed=0:02:38.27    \nframe=   63 fps=0.4 q=33.9 size=    1024KiB time=00:00:02.03 bitrate=4125.7kbits/s speed=0.0128x elapsed=0:02:38.82    \nframe=   63 fps=0.4 q=33.9 size=    1024KiB time=00:00:02.03 bitrate=4125.7kbits/s speed=0.0128x elapsed=0:02:39.35    \nframe=   64 fps=0.4 q=36.4 size=    1024KiB time=00:00:02.06 bitrate=4059.2kbits/s speed=0.0129x elapsed=0:02:39.87    \nframe=   65 fps=0.4 q=36.5 size=    1024KiB time=00:00:02.10 bitrate=3994.7kbits/s speed=0.0131x elapsed=0:02:40.39    \nframe=   65 fps=0.4 q=36.5 size=    1024KiB time=00:00:02.10 bitrate=3994.7kbits/s speed=0.0131x elapsed=0:02:40.91    \nframe=   65 fps=0.4 q=36.5 size=    1024KiB time=00:00:02.10 bitrate=3994.7kbits/s speed=0.013x elapsed=0:02:41.43    \nframe=   65 fps=0.4 q=36.5 size=    1024KiB time=00:00:02.10 bitrate=3994.7kbits/s speed=0.013x elapsed=0:02:41.96    \nframe=   65 fps=0.4 q=36.5 size=    1024KiB time=00:00:02.10 bitrate=3994.7kbits/s speed=0.0129x elapsed=0:02:42.48    \nframe=   65 fps=0.4 q=36.5 size=    1024KiB time=00:00:02.10 bitrate=3994.7kbits/s speed=0.0129x elapsed=0:02:43.02    \nframe=   66 fps=0.4 q=32.4 size=    1024KiB time=00:00:02.13 bitrate=3932.3kbits/s speed=0.013x elapsed=0:02:43.55    \nframe=   66 fps=0.4 q=32.4 size=    1024KiB time=00:00:02.13 bitrate=3932.3kbits/s speed=0.013x elapsed=0:02:44.05    \nframe=   66 fps=0.4 q=32.4 size=    1024KiB time=00:00:02.13 bitrate=3932.3kbits/s speed=0.013x elapsed=0:02:44.57    \nframe=   66 fps=0.4 q=32.4 size=    1024KiB time=00:00:02.13 bitrate=3932.3kbits/s speed=0.0129x elapsed=0:02:45.10    \nframe=   67 fps=0.4 q=34.4 size=    1024KiB time=00:00:02.16 bitrate=3871.8kbits/s speed=0.0131x elapsed=0:02:45.63    \nframe=   67 fps=0.4 q=34.4 size=    1024KiB time=00:00:02.16 bitrate=3871.8kbits/s speed=0.013x elapsed=0:02:46.16    \nframe=   67 fps=0.4 q=34.4 size=    1024KiB time=00:00:02.16 bitrate=3871.8kbits/s speed=0.013x elapsed=0:02:46.68    \nframe=   67 fps=0.4 q=34.4 size=    1024KiB time=00:00:02.16 bitrate=3871.8kbits/s speed=0.013x elapsed=0:02:47.21    \nframe=   68 fps=0.4 q=36.6 size=    1024KiB time=00:00:02.20 bitrate=3813.2kbits/s speed=0.0131x elapsed=0:02:47.75    \nframe=   68 fps=0.4 q=36.6 size=    1024KiB time=00:00:02.20 bitrate=3813.2kbits/s speed=0.0131x elapsed=0:02:48.27    \nframe=   69 fps=0.4 q=32.5 size=    1024KiB time=00:00:02.23 bitrate=3756.3kbits/s speed=0.0132x elapsed=0:02:48.79    \nframe=   69 fps=0.4 q=32.5 size=    1024KiB time=00:00:02.23 bitrate=3756.3kbits/s speed=0.0132x elapsed=0:02:49.30    \nframe=   69 fps=0.4 q=32.5 size=    1024KiB time=00:00:02.23 bitrate=3756.3kbits/s speed=0.0132x elapsed=0:02:49.82    \nframe=   70 fps=0.4 q=33.9 size=    1024KiB time=00:00:02.26 bitrate=3701.0kbits/s speed=0.0133x elapsed=0:02:50.34    \nframe=   70 fps=0.4 q=33.9 size=    1024KiB time=00:00:02.26 bitrate=3701.0kbits/s speed=0.0133x elapsed=0:02:50.86    \nframe=   70 fps=0.4 q=33.9 size=    1024KiB time=00:00:02.26 bitrate=3701.0kbits/s speed=0.0132x elapsed=0:02:51.41    \nframe=   70 fps=0.4 q=33.9 size=    1024KiB time=00:00:02.26 bitrate=3701.0kbits/s speed=0.0132x elapsed=0:02:51.94    \nframe=   71 fps=0.4 q=37.0 size=    1024KiB time=00:00:02.30 bitrate=3647.4kbits/s speed=0.0133x elapsed=0:02:52.51    \nframe=   71 fps=0.4 q=37.0 size=    1024KiB time=00:00:02.30 bitrate=3647.4kbits/s speed=0.0133x elapsed=0:02:53.09    \nframe=   71 fps=0.4 q=37.0 size=    1024KiB time=00:00:02.30 bitrate=3647.4kbits/s speed=0.0132x elapsed=0:02:53.62    \nframe=   71 fps=0.4 q=37.0 size=    1024KiB time=00:00:02.30 bitrate=3647.4kbits/s speed=0.0132x elapsed=0:02:54.15    \nframe=   72 fps=0.4 q=32.3 size=    1024KiB time=00:00:02.33 bitrate=3595.3kbits/s speed=0.0134x elapsed=0:02:54.66    \nframe=   72 fps=0.4 q=32.3 size=    1024KiB time=00:00:02.33 bitrate=3595.3kbits/s speed=0.0133x elapsed=0:02:55.18    \nframe=   72 fps=0.4 q=32.3 size=    1024KiB time=00:00:02.33 bitrate=3595.3kbits/s speed=0.0133x elapsed=0:02:55.71    \nframe=   72 fps=0.4 q=32.3 size=    1024KiB time=00:00:02.33 bitrate=3595.3kbits/s speed=0.0132x elapsed=0:02:56.22    \nframe=   73 fps=0.4 q=35.2 size=    1024KiB time=00:00:02.36 bitrate=3544.6kbits/s speed=0.0134x elapsed=0:02:56.75    \nframe=   73 fps=0.4 q=35.2 size=    1024KiB time=00:00:02.36 bitrate=3544.6kbits/s speed=0.0134x elapsed=0:02:57.26    \nframe=   73 fps=0.4 q=35.2 size=    1024KiB time=00:00:02.36 bitrate=3544.6kbits/s speed=0.0133x elapsed=0:02:57.78    \nframe=   75 fps=0.4 q=37.4 size=    1024KiB time=00:00:02.43 bitrate=3447.5kbits/s speed=0.0136x elapsed=0:02:58.30    \nframe=   76 fps=0.4 q=33.4 size=    1024KiB time=00:00:02.46 bitrate=3400.9kbits/s speed=0.0138x elapsed=0:02:58.81    \nframe=   76 fps=0.4 q=33.4 size=    1024KiB time=00:00:02.46 bitrate=3400.9kbits/s speed=0.0138x elapsed=0:02:59.33    \nframe=   76 fps=0.4 q=33.4 size=    1024KiB time=00:00:02.46 bitrate=3400.9kbits/s speed=0.0137x elapsed=0:02:59.84    \nframe=   77 fps=0.4 q=35.2 size=    1024KiB time=00:00:02.50 bitrate=3355.6kbits/s speed=0.0139x elapsed=0:03:00.36    \nframe=   77 fps=0.4 q=35.2 size=    1024KiB time=00:00:02.50 bitrate=3355.6kbits/s speed=0.0138x elapsed=0:03:00.87    \nframe=   79 fps=0.4 q=36.7 size=    1280KiB time=00:00:02.56 bitrate=4085.5kbits/s speed=0.0142x elapsed=0:03:01.38    \nframe=   79 fps=0.4 q=36.7 size=    1280KiB time=00:00:02.56 bitrate=4085.5kbits/s speed=0.0141x elapsed=0:03:01.92    \nframe=   79 fps=0.4 q=36.7 size=    1280KiB time=00:00:02.56 bitrate=4085.5kbits/s speed=0.0141x elapsed=0:03:02.51    \nframe=   79 fps=0.4 q=36.7 size=    1280KiB time=00:00:02.56 bitrate=4085.5kbits/s speed=0.014x elapsed=0:03:03.04    \nframe=   79 fps=0.4 q=36.7 size=    1280KiB time=00:00:02.56 bitrate=4085.5kbits/s speed=0.014x elapsed=0:03:03.58    \nframe=   79 fps=0.4 q=36.7 size=    1280KiB time=00:00:02.56 bitrate=4085.5kbits/s speed=0.0139x elapsed=0:03:04.10    \nframe=   79 fps=0.4 q=36.7 size=    1280KiB time=00:00:02.56 bitrate=4085.5kbits/s speed=0.0139x elapsed=0:03:04.63    \nframe=   80 fps=0.4 q=32.2 size=    1280KiB time=00:00:02.60 bitrate=4033.1kbits/s speed=0.014x elapsed=0:03:05.17    \nframe=   80 fps=0.4 q=32.2 size=    1280KiB time=00:00:02.60 bitrate=4033.1kbits/s speed=0.014x elapsed=0:03:05.70    \nframe=   80 fps=0.4 q=32.2 size=    1280KiB time=00:00:02.60 bitrate=4033.1kbits/s speed=0.014x elapsed=0:03:06.21    \nframe=   80 fps=0.4 q=32.2 size=    1280KiB time=00:00:02.60 bitrate=4033.1kbits/s speed=0.0139x elapsed=0:03:06.74    \nframe=   80 fps=0.4 q=32.2 size=    1280KiB time=00:00:02.60 bitrate=4033.1kbits/s speed=0.0139x elapsed=0:03:07.28    \nframe=   80 fps=0.4 q=32.2 size=    1280KiB time=00:00:02.60 bitrate=4033.1kbits/s speed=0.0138x elapsed=0:03:07.81    \nframe=   80 fps=0.4 q=32.2 size=    1280KiB time=00:00:02.60 bitrate=4033.1kbits/s speed=0.0138x elapsed=0:03:08.34    \nframe=   81 fps=0.4 q=34.3 size=    1280KiB time=00:00:02.63 bitrate=3982.1kbits/s speed=0.0139x elapsed=0:03:08.88    \nframe=   81 fps=0.4 q=34.3 size=    1280KiB time=00:00:02.63 bitrate=3982.1kbits/s speed=0.0139x elapsed=0:03:09.39    \nframe=   81 fps=0.4 q=34.3 size=    1280KiB time=00:00:02.63 bitrate=3982.1kbits/s speed=0.0139x elapsed=0:03:09.91    \nframe=   81 fps=0.4 q=34.3 size=    1280KiB time=00:00:02.63 bitrate=3982.1kbits/s speed=0.0138x elapsed=0:03:10.43    \nframe=   82 fps=0.4 q=36.4 size=    1280KiB time=00:00:02.66 bitrate=3932.3kbits/s speed=0.014x elapsed=0:03:10.95    \nframe=   82 fps=0.4 q=36.4 size=    1280KiB time=00:00:02.66 bitrate=3932.3kbits/s speed=0.0139x elapsed=0:03:11.49    \nframe=   83 fps=0.4 q=36.7 size=    1280KiB time=00:00:02.70 bitrate=3883.7kbits/s speed=0.0141x elapsed=0:03:12.01    \nframe=   83 fps=0.4 q=36.7 size=    1280KiB time=00:00:02.70 bitrate=3883.7kbits/s speed=0.014x elapsed=0:03:12.53    \nframe=   83 fps=0.4 q=36.7 size=    1280KiB time=00:00:02.70 bitrate=3883.7kbits/s speed=0.014x elapsed=0:03:13.04    \nframe=   83 fps=0.4 q=36.7 size=    1280KiB time=00:00:02.70 bitrate=3883.7kbits/s speed=0.0139x elapsed=0:03:13.56    \nframe=   83 fps=0.4 q=36.7 size=    1280KiB time=00:00:02.70 bitrate=3883.7kbits/s speed=0.0139x elapsed=0:03:14.07    \nframe=   84 fps=0.4 q=31.6 size=    1280KiB time=00:00:02.73 bitrate=3836.4kbits/s speed=0.014x elapsed=0:03:14.60    \nframe=   84 fps=0.4 q=31.6 size=    1280KiB time=00:00:02.73 bitrate=3836.4kbits/s speed=0.014x elapsed=0:03:15.12    \nframe=   84 fps=0.4 q=31.6 size=    1280KiB time=00:00:02.73 bitrate=3836.4kbits/s speed=0.014x elapsed=0:03:15.67    \nframe=   84 fps=0.4 q=31.6 size=    1280KiB time=00:00:02.73 bitrate=3836.4kbits/s speed=0.0139x elapsed=0:03:16.18    \nframe=   84 fps=0.4 q=31.6 size=    1280KiB time=00:00:02.73 bitrate=3836.4kbits/s speed=0.0139x elapsed=0:03:16.73    \nframe=   84 fps=0.4 q=31.6 size=    1280KiB time=00:00:02.73 bitrate=3836.4kbits/s speed=0.0139x elapsed=0:03:17.26    \nframe=   84 fps=0.4 q=31.6 size=    1280KiB time=00:00:02.73 bitrate=3836.4kbits/s speed=0.0138x elapsed=0:03:17.77    \nframe=   85 fps=0.4 q=33.3 size=    1280KiB time=00:00:02.76 bitrate=3790.2kbits/s speed=0.014x elapsed=0:03:18.29    \nframe=   85 fps=0.4 q=33.3 size=    1280KiB time=00:00:02.76 bitrate=3790.2kbits/s speed=0.0139x elapsed=0:03:18.80    \nframe=   85 fps=0.4 q=33.3 size=    1280KiB time=00:00:02.76 bitrate=3790.2kbits/s speed=0.0139x elapsed=0:03:19.33    \nframe=   86 fps=0.4 q=36.5 size=    1280KiB time=00:00:02.80 bitrate=3745.0kbits/s speed=0.014x elapsed=0:03:19.85    \nframe=   87 fps=0.4 q=36.5 size=    1280KiB time=00:00:02.83 bitrate=3701.0kbits/s speed=0.0141x elapsed=0:03:20.37    \nframe=   87 fps=0.4 q=36.5 size=    1280KiB time=00:00:02.83 bitrate=3701.0kbits/s speed=0.0141x elapsed=0:03:20.89    \nframe=   87 fps=0.4 q=36.5 size=    1280KiB time=00:00:02.83 bitrate=3701.0kbits/s speed=0.0141x elapsed=0:03:21.40    \nframe=   87 fps=0.4 q=36.5 size=    1280KiB time=00:00:02.83 bitrate=3701.0kbits/s speed=0.014x elapsed=0:03:21.96    \nframe=   88 fps=0.4 q=36.9 size=    1280KiB time=00:00:02.86 bitrate=3657.9kbits/s speed=0.0142x elapsed=0:03:22.46    \nframe=   88 fps=0.4 q=36.9 size=    1280KiB time=00:00:02.86 bitrate=3657.9kbits/s speed=0.0141x elapsed=0:03:22.98    \nframe=   88 fps=0.4 q=36.9 size=    1280KiB time=00:00:02.86 bitrate=3657.9kbits/s speed=0.0141x elapsed=0:03:23.49    \nframe=   88 fps=0.4 q=36.9 size=    1280KiB time=00:00:02.86 bitrate=3657.9kbits/s speed=0.0141x elapsed=0:03:24.00    \nframe=   89 fps=0.4 q=31.4 size=    1280KiB time=00:00:02.90 bitrate=3615.9kbits/s speed=0.0142x elapsed=0:03:24.52    \nframe=   89 fps=0.4 q=31.4 size=    1280KiB time=00:00:02.90 bitrate=3615.9kbits/s speed=0.0141x elapsed=0:03:25.04    \nframe=   89 fps=0.4 q=31.4 size=    1280KiB time=00:00:02.90 bitrate=3615.9kbits/s speed=0.0141x elapsed=0:03:25.57    \nframe=   89 fps=0.4 q=31.4 size=    1280KiB time=00:00:02.90 bitrate=3615.9kbits/s speed=0.0141x elapsed=0:03:26.09    \nframe=   89 fps=0.4 q=31.4 size=    1280KiB time=00:00:02.90 bitrate=3615.9kbits/s speed=0.014x elapsed=0:03:26.61    \nframe=   89 fps=0.4 q=31.4 size=    1280KiB time=00:00:02.90 bitrate=3615.9kbits/s speed=0.014x elapsed=0:03:27.14    \nframe=   89 fps=0.4 q=31.4 size=    1280KiB time=00:00:02.90 bitrate=3615.9kbits/s speed=0.014x elapsed=0:03:27.65    \nframe=   89 fps=0.4 q=31.4 size=    1280KiB time=00:00:02.90 bitrate=3615.9kbits/s speed=0.0139x elapsed=0:03:28.18    \nframe=   90 fps=0.4 q=35.5 size=    1280KiB time=00:00:02.93 bitrate=3574.8kbits/s speed=0.0141x elapsed=0:03:28.70    \nframe=   90 fps=0.4 q=35.5 size=    1280KiB time=00:00:02.93 bitrate=3574.8kbits/s speed=0.014x elapsed=0:03:29.23    \nframe=   90 fps=0.4 q=35.5 size=    1280KiB time=00:00:02.93 bitrate=3574.8kbits/s speed=0.014x elapsed=0:03:29.75    \nframe=   90 fps=0.4 q=35.5 size=    1280KiB time=00:00:02.93 bitrate=3574.8kbits/s speed=0.0139x elapsed=0:03:30.30    \nframe=   90 fps=0.4 q=35.5 size=    1280KiB time=00:00:02.93 bitrate=3574.8kbits/s speed=0.0139x elapsed=0:03:30.81    \nframe=   90 fps=0.4 q=35.5 size=    1280KiB time=00:00:02.93 bitrate=3574.8kbits/s speed=0.0139x elapsed=0:03:31.34    \nframe=   90 fps=0.4 q=35.5 size=    1280KiB time=00:00:02.93 bitrate=3574.8kbits/s speed=0.0138x elapsed=0:03:31.89    \nframe=   91 fps=0.4 q=37.0 size=    1280KiB time=00:00:02.96 bitrate=3534.6kbits/s speed=0.014x elapsed=0:03:32.41    \nframe=   91 fps=0.4 q=37.0 size=    1280KiB time=00:00:02.96 bitrate=3534.6kbits/s speed=0.0139x elapsed=0:03:32.94    \nframe=   92 fps=0.4 q=36.8 size=    1280KiB time=00:00:03.00 bitrate=3495.4kbits/s speed=0.0141x elapsed=0:03:33.48    \nframe=   93 fps=0.4 q=36.5 size=    1280KiB time=00:00:03.03 bitrate=3457.0kbits/s speed=0.0142x elapsed=0:03:34.03    \nframe=   93 fps=0.4 q=36.5 size=    1280KiB time=00:00:03.03 bitrate=3457.0kbits/s speed=0.0141x elapsed=0:03:34.54    \nframe=   93 fps=0.4 q=36.5 size=    1280KiB time=00:00:03.03 bitrate=3457.0kbits/s speed=0.0141x elapsed=0:03:35.09    \nframe=   93 fps=0.4 q=36.5 size=    1280KiB time=00:00:03.03 bitrate=3457.0kbits/s speed=0.0141x elapsed=0:03:35.62    \nframe=   93 fps=0.4 q=36.5 size=    1280KiB time=00:00:03.03 bitrate=3457.0kbits/s speed=0.014x elapsed=0:03:36.13    \nframe=   93 fps=0.4 q=36.5 size=    1280KiB time=00:00:03.03 bitrate=3457.0kbits/s speed=0.014x elapsed=0:03:36.67    \nframe=   93 fps=0.4 q=36.5 size=    1280KiB time=00:00:03.03 bitrate=3457.0kbits/s speed=0.014x elapsed=0:03:37.19    \nframe=   94 fps=0.4 q=33.1 size=    1280KiB time=00:00:03.06 bitrate=3419.4kbits/s speed=0.0141x elapsed=0:03:37.71    \nframe=   94 fps=0.4 q=33.1 size=    1280KiB time=00:00:03.06 bitrate=3419.4kbits/s speed=0.0141x elapsed=0:03:38.23    \nframe=   94 fps=0.4 q=33.1 size=    1280KiB time=00:00:03.06 bitrate=3419.4kbits/s speed=0.014x elapsed=0:03:38.75    \nframe=   94 fps=0.4 q=33.1 size=    1280KiB time=00:00:03.06 bitrate=3419.4kbits/s speed=0.014x elapsed=0:03:39.30    \nframe=   94 fps=0.4 q=33.1 size=    1280KiB time=00:00:03.06 bitrate=3419.4kbits/s speed=0.014x elapsed=0:03:39.82    \nframe=   95 fps=0.4 q=35.0 size=    1536KiB time=00:00:03.10 bitrate=4059.1kbits/s speed=0.0141x elapsed=0:03:40.35    \nframe=   95 fps=0.4 q=35.0 size=    1536KiB time=00:00:03.10 bitrate=4059.1kbits/s speed=0.014x elapsed=0:03:40.88    \nframe=   95 fps=0.4 q=35.0 size=    1536KiB time=00:00:03.10 bitrate=4059.1kbits/s speed=0.014x elapsed=0:03:41.40    \nframe=   95 fps=0.4 q=35.0 size=    1536KiB time=00:00:03.10 bitrate=4059.1kbits/s speed=0.014x elapsed=0:03:41.92    \nframe=   96 fps=0.4 q=37.0 size=    1536KiB time=00:00:03.13 bitrate=4015.9kbits/s speed=0.0141x elapsed=0:03:42.44    \nframe=   97 fps=0.4 q=37.5 size=    1536KiB time=00:00:03.16 bitrate=3973.7kbits/s speed=0.0142x elapsed=0:03:42.97    \nframe=   97 fps=0.4 q=37.5 size=    1536KiB time=00:00:03.16 bitrate=3973.7kbits/s speed=0.0142x elapsed=0:03:43.51    \nframe=   97 fps=0.4 q=37.5 size=    1536KiB time=00:00:03.16 bitrate=3973.7kbits/s speed=0.0141x elapsed=0:03:44.04    \nframe=   97 fps=0.4 q=37.5 size=    1536KiB time=00:00:03.16 bitrate=3973.7kbits/s speed=0.0141x elapsed=0:03:44.62    \nframe=   97 fps=0.4 q=37.5 size=    1536KiB time=00:00:03.16 bitrate=3973.7kbits/s speed=0.0141x elapsed=0:03:45.19    \nframe=   97 fps=0.4 q=37.5 size=    1536KiB time=00:00:03.16 bitrate=3973.7kbits/s speed=0.014x elapsed=0:03:45.71    \nframe=   97 fps=0.4 q=37.5 size=    1536KiB time=00:00:03.16 bitrate=3973.7kbits/s speed=0.014x elapsed=0:03:46.23    \nframe=   98 fps=0.4 q=32.8 size=    1536KiB time=00:00:03.20 bitrate=3932.3kbits/s speed=0.0141x elapsed=0:03:46.75    \nframe=   98 fps=0.4 q=32.8 size=    1536KiB time=00:00:03.20 bitrate=3932.3kbits/s speed=0.0141x elapsed=0:03:47.27    \nframe=   98 fps=0.4 q=32.8 size=    1536KiB time=00:00:03.20 bitrate=3932.3kbits/s speed=0.014x elapsed=0:03:47.80    \nframe=   99 fps=0.4 q=35.3 size=    1536KiB time=00:00:03.23 bitrate=3891.7kbits/s speed=0.0142x elapsed=0:03:48.31    \nframe=   99 fps=0.4 q=35.3 size=    1536KiB time=00:00:03.23 bitrate=3891.7kbits/s speed=0.0141x elapsed=0:03:48.82    \nframe=  100 fps=0.4 q=37.4 size=    1536KiB time=00:00:03.26 bitrate=3852.0kbits/s speed=0.0142x elapsed=0:03:49.34    \nframe=  100 fps=0.4 q=37.4 size=    1536KiB time=00:00:03.26 bitrate=3852.0kbits/s speed=0.0142x elapsed=0:03:49.86    \nframe=  100 fps=0.4 q=37.4 size=    1536KiB time=00:00:03.26 bitrate=3852.0kbits/s speed=0.0142x elapsed=0:03:50.37    \nframe=  101 fps=0.4 q=32.7 size=    1536KiB time=00:00:03.30 bitrate=3813.1kbits/s speed=0.0143x elapsed=0:03:50.88    \nframe=  101 fps=0.4 q=32.7 size=    1536KiB time=00:00:03.30 bitrate=3813.1kbits/s speed=0.0143x elapsed=0:03:51.41    \nframe=  101 fps=0.4 q=32.7 size=    1536KiB time=00:00:03.30 bitrate=3813.1kbits/s speed=0.0142x elapsed=0:03:51.91    \nframe=  102 fps=0.4 q=35.3 size=    1536KiB time=00:00:03.33 bitrate=3775.0kbits/s speed=0.0143x elapsed=0:03:52.44    \nframe=  103 fps=0.4 q=37.2 size=    1536KiB time=00:00:03.36 bitrate=3737.6kbits/s speed=0.0145x elapsed=0:03:52.94    \nframe=  104 fps=0.4 q=37.8 size=    1536KiB time=00:00:03.40 bitrate=3701.0kbits/s speed=0.0146x elapsed=0:03:53.47    \nframe=  104 fps=0.4 q=37.8 size=    1536KiB time=00:00:03.40 bitrate=3701.0kbits/s speed=0.0145x elapsed=0:03:53.98    \nframe=  104 fps=0.4 q=37.8 size=    1536KiB time=00:00:03.40 bitrate=3701.0kbits/s speed=0.0145x elapsed=0:03:54.50    \nframe=  105 fps=0.4 q=34.3 size=    1536KiB time=00:00:03.43 bitrate=3665.0kbits/s speed=0.0146x elapsed=0:03:55.01    \nframe=  105 fps=0.4 q=34.3 size=    1536KiB time=00:00:03.43 bitrate=3665.0kbits/s speed=0.0146x elapsed=0:03:55.53    \nframe=  106 fps=0.4 q=35.8 size=    1536KiB time=00:00:03.46 bitrate=3629.8kbits/s speed=0.0147x elapsed=0:03:56.04    \nframe=  106 fps=0.4 q=35.8 size=    1536KiB time=00:00:03.46 bitrate=3629.8kbits/s speed=0.0147x elapsed=0:03:56.56    \nframe=  108 fps=0.5 q=37.9 size=    1792KiB time=00:00:03.53 bitrate=4154.8kbits/s speed=0.0149x elapsed=0:03:57.07    \nframe=  108 fps=0.5 q=37.9 size=    1792KiB time=00:00:03.53 bitrate=4154.8kbits/s speed=0.0149x elapsed=0:03:57.59    \nframe=  108 fps=0.5 q=37.9 size=    1792KiB time=00:00:03.53 bitrate=4154.8kbits/s speed=0.0148x elapsed=0:03:58.10    \nframe=  108 fps=0.5 q=37.9 size=    1792KiB time=00:00:03.53 bitrate=4154.8kbits/s speed=0.0148x elapsed=0:03:58.62    \nframe=  109 fps=0.5 q=33.3 size=    1792KiB time=00:00:03.56 bitrate=4116.0kbits/s speed=0.0149x elapsed=0:03:59.14    \nframe=  109 fps=0.5 q=33.3 size=    1792KiB time=00:00:03.56 bitrate=4116.0kbits/s speed=0.0149x elapsed=0:03:59.64    \nframe=  110 fps=0.5 q=36.5 size=    1792KiB time=00:00:03.60 bitrate=4077.9kbits/s speed=0.015x elapsed=0:04:00.17    \nframe=  111 fps=0.5 q=37.5 size=    1792KiB time=00:00:03.63 bitrate=4040.5kbits/s speed=0.0151x elapsed=0:04:00.68    \nframe=  111 fps=0.5 q=37.5 size=    1792KiB time=00:00:03.63 bitrate=4040.5kbits/s speed=0.0151x elapsed=0:04:01.20    \nframe=  111 fps=0.5 q=37.5 size=    1792KiB time=00:00:03.63 bitrate=4040.5kbits/s speed=0.015x elapsed=0:04:01.71    \nframe=  111 fps=0.5 q=37.5 size=    1792KiB time=00:00:03.63 bitrate=4040.5kbits/s speed=0.015x elapsed=0:04:02.24    \nframe=  112 fps=0.5 q=33.3 size=    1792KiB time=00:00:03.66 bitrate=4003.7kbits/s speed=0.0151x elapsed=0:04:02.82    \nframe=  112 fps=0.5 q=33.3 size=    1792KiB time=00:00:03.66 bitrate=4003.7kbits/s speed=0.0151x elapsed=0:04:03.37    \nframe=  112 fps=0.5 q=33.3 size=    1792KiB time=00:00:03.66 bitrate=4003.7kbits/s speed=0.015x elapsed=0:04:03.91    \nframe=  112 fps=0.5 q=33.3 size=    1792KiB time=00:00:03.66 bitrate=4003.7kbits/s speed=0.015x elapsed=0:04:04.42    \nframe=  112 fps=0.5 q=33.3 size=    1792KiB time=00:00:03.66 bitrate=4003.7kbits/s speed=0.015x elapsed=0:04:04.94    \nframe=  112 fps=0.5 q=33.3 size=    1792KiB time=00:00:03.66 bitrate=4003.7kbits/s speed=0.0149x elapsed=0:04:05.46    \nframe=  112 fps=0.5 q=33.3 size=    1792KiB time=00:00:03.66 bitrate=4003.7kbits/s speed=0.0149x elapsed=0:04:05.98    \nframe=  112 fps=0.5 q=33.3 size=    1792KiB time=00:00:03.66 bitrate=4003.7kbits/s speed=0.0149x elapsed=0:04:06.49    \nframe=  112 fps=0.5 q=33.3 size=    1792KiB time=00:00:03.66 bitrate=4003.7kbits/s speed=0.0148x elapsed=0:04:07.03    \nframe=  113 fps=0.5 q=35.1 size=    1792KiB time=00:00:03.70 bitrate=3967.7kbits/s speed=0.0149x elapsed=0:04:07.57    \nframe=  113 fps=0.5 q=35.1 size=    1792KiB time=00:00:03.70 bitrate=3967.7kbits/s speed=0.0149x elapsed=0:04:08.15    \nframe=  113 fps=0.5 q=35.1 size=    1792KiB time=00:00:03.70 bitrate=3967.7kbits/s speed=0.0149x elapsed=0:04:08.70    \nframe=  113 fps=0.5 q=35.1 size=    1792KiB time=00:00:03.70 bitrate=3967.7kbits/s speed=0.0148x elapsed=0:04:09.25    \nframe=  113 fps=0.5 q=35.1 size=    1792KiB time=00:00:03.70 bitrate=3967.7kbits/s speed=0.0148x elapsed=0:04:09.86    \nframe=  113 fps=0.5 q=35.1 size=    1792KiB time=00:00:03.70 bitrate=3967.7kbits/s speed=0.0148x elapsed=0:04:10.43    \nframe=  113 fps=0.5 q=35.1 size=    1792KiB time=00:00:03.70 bitrate=3967.7kbits/s speed=0.0147x elapsed=0:04:10.97    \nframe=  113 fps=0.4 q=35.1 size=    1792KiB time=00:00:03.70 bitrate=3967.7kbits/s speed=0.0147x elapsed=0:04:11.52    \nframe=  113 fps=0.4 q=35.1 size=    1792KiB time=00:00:03.70 bitrate=3967.7kbits/s speed=0.0147x elapsed=0:04:12.05    \nframe=  114 fps=0.5 q=37.4 size=    1792KiB time=00:00:03.73 bitrate=3932.3kbits/s speed=0.0148x elapsed=0:04:12.58    \nframe=  114 fps=0.5 q=37.4 size=    1792KiB time=00:00:03.73 bitrate=3932.3kbits/s speed=0.0147x elapsed=0:04:13.17    \nframe=  114 fps=0.4 q=37.4 size=    1792KiB time=00:00:03.73 bitrate=3932.3kbits/s speed=0.0147x elapsed=0:04:13.71    \nframe=  115 fps=0.5 q=37.7 size=    1792KiB time=00:00:03.76 bitrate=3897.5kbits/s speed=0.0148x elapsed=0:04:14.26    \nframe=  116 fps=0.5 q=33.1 size=    1792KiB time=00:00:03.76 bitrate=3897.5kbits/s speed=0.0148x elapsed=0:04:14.82    \nframe=  116 fps=0.5 q=33.1 size=    1792KiB time=00:00:03.80 bitrate=3863.3kbits/s speed=0.0149x elapsed=0:04:15.39    \nframe=  116 fps=0.5 q=33.1 size=    1792KiB time=00:00:03.80 bitrate=3863.3kbits/s speed=0.0148x elapsed=0:04:15.97    \nframe=  116 fps=0.5 q=33.1 size=    1792KiB time=00:00:03.80 bitrate=3863.3kbits/s speed=0.0148x elapsed=0:04:16.52    \nframe=  116 fps=0.5 q=33.1 size=    1792KiB time=00:00:03.80 bitrate=3863.3kbits/s speed=0.0148x elapsed=0:04:17.07    \nframe=  117 fps=0.5 q=35.9 size=    1792KiB time=00:00:03.83 bitrate=3829.7kbits/s speed=0.0149x elapsed=0:04:17.63    \nframe=  117 fps=0.5 q=35.9 size=    1792KiB time=00:00:03.83 bitrate=3829.7kbits/s speed=0.0148x elapsed=0:04:18.15    \nframe=  117 fps=0.5 q=35.9 size=    1792KiB time=00:00:03.83 bitrate=3829.7kbits/s speed=0.0148x elapsed=0:04:18.67    \nframe=  117 fps=0.5 q=35.9 size=    1792KiB time=00:00:03.83 bitrate=3829.7kbits/s speed=0.0148x elapsed=0:04:19.26    \nframe=  118 fps=0.5 q=37.3 size=    1792KiB time=00:00:03.86 bitrate=3796.7kbits/s speed=0.0149x elapsed=0:04:19.80    \nframe=  118 fps=0.5 q=37.3 size=    1792KiB time=00:00:03.86 bitrate=3796.7kbits/s speed=0.0149x elapsed=0:04:20.33    \nframe=  118 fps=0.5 q=37.3 size=    1792KiB time=00:00:03.86 bitrate=3796.7kbits/s speed=0.0148x elapsed=0:04:20.89    \nframe=  118 fps=0.5 q=37.3 size=    1792KiB time=00:00:03.86 bitrate=3796.7kbits/s speed=0.0148x elapsed=0:04:21.46    \nframe=  118 fps=0.5 q=37.3 size=    1792KiB time=00:00:03.86 bitrate=3796.7kbits/s speed=0.0148x elapsed=0:04:22.04    \nframe=  118 fps=0.4 q=37.3 size=    1792KiB time=00:00:03.86 bitrate=3796.7kbits/s speed=0.0147x elapsed=0:04:22.61    \nframe=  118 fps=0.4 q=37.3 size=    1792KiB time=00:00:03.86 bitrate=3796.7kbits/s speed=0.0147x elapsed=0:04:23.19    \nframe=  118 fps=0.4 q=37.3 size=    1792KiB time=00:00:03.86 bitrate=3796.7kbits/s speed=0.0147x elapsed=0:04:23.78    \nframe=  118 fps=0.4 q=37.3 size=    1792KiB time=00:00:03.86 bitrate=3796.7kbits/s speed=0.0146x elapsed=0:04:24.31    \nframe=  118 fps=0.4 q=37.3 size=    1792KiB time=00:00:03.86 bitrate=3796.7kbits/s speed=0.0146x elapsed=0:04:24.83    \nframe=  118 fps=0.4 q=37.3 size=    1792KiB time=00:00:03.86 bitrate=3796.7kbits/s speed=0.0146x elapsed=0:04:25.34    \nframe=  118 fps=0.4 q=37.3 size=    1792KiB time=00:00:03.86 bitrate=3796.7kbits/s speed=0.0145x elapsed=0:04:25.90    \nframe=  118 fps=0.4 q=37.3 size=    1792KiB time=00:00:03.86 bitrate=3796.7kbits/s speed=0.0145x elapsed=0:04:26.43    \nframe=  119 fps=0.4 q=33.4 size=    1792KiB time=00:00:03.90 bitrate=3764.2kbits/s speed=0.0146x elapsed=0:04:26.97    \nframe=  119 fps=0.4 q=33.4 size=    1792KiB time=00:00:03.90 bitrate=3764.2kbits/s speed=0.0146x elapsed=0:04:27.52    \nframe=  119 fps=0.4 q=33.4 size=    1792KiB time=00:00:03.90 bitrate=3764.2kbits/s speed=0.0145x elapsed=0:04:28.04    \nframe=  119 fps=0.4 q=33.4 size=    1792KiB time=00:00:03.90 bitrate=3764.2kbits/s speed=0.0145x elapsed=0:04:28.61    \nframe=  119 fps=0.4 q=33.4 size=    1792KiB time=00:00:03.90 bitrate=3764.2kbits/s speed=0.0145x elapsed=0:04:29.15    \nframe=  119 fps=0.4 q=33.4 size=    1792KiB time=00:00:03.90 bitrate=3764.2kbits/s speed=0.0145x elapsed=0:04:29.66    \nframe=  119 fps=0.4 q=33.4 size=    1792KiB time=00:00:03.90 bitrate=3764.2kbits/s speed=0.0144x elapsed=0:04:30.19    \nframe=  119 fps=0.4 q=33.4 size=    1792KiB time=00:00:03.90 bitrate=3764.2kbits/s speed=0.0144x elapsed=0:04:30.73    \nframe=  119 fps=0.4 q=33.4 size=    1792KiB time=00:00:03.90 bitrate=3764.2kbits/s speed=0.0144x elapsed=0:04:31.28    \nframe=  119 fps=0.4 q=33.4 size=    1792KiB time=00:00:03.90 bitrate=3764.2kbits/s speed=0.0143x elapsed=0:04:31.81    \nframe=  119 fps=0.4 q=33.4 size=    1792KiB time=00:00:03.90 bitrate=3764.2kbits/s speed=0.0143x elapsed=0:04:32.40    \nframe=  119 fps=0.4 q=33.4 size=    1792KiB time=00:00:03.90 bitrate=3764.2kbits/s speed=0.0143x elapsed=0:04:32.95    \nframe=  119 fps=0.4 q=33.4 size=    1792KiB time=00:00:03.90 bitrate=3764.2kbits/s speed=0.0143x elapsed=0:04:33.52    \nframe=  119 fps=0.4 q=33.4 size=    1792KiB time=00:00:03.90 bitrate=3764.2kbits/s speed=0.0142x elapsed=0:04:34.06    \nframe=  119 fps=0.4 q=33.4 size=    1792KiB time=00:00:03.90 bitrate=3764.2kbits/s speed=0.0142x elapsed=0:04:34.63    \nframe=  120 fps=0.4 q=35.8 size=    1792KiB time=00:00:03.93 bitrate=3732.3kbits/s speed=0.0143x elapsed=0:04:35.16    \nframe=  120 fps=0.4 q=35.8 size=    1792KiB time=00:00:03.93 bitrate=3732.3kbits/s speed=0.0143x elapsed=0:04:35.70    \nframe=  120 fps=0.4 q=35.8 size=    1792KiB time=00:00:03.93 bitrate=3732.3kbits/s speed=0.0142x elapsed=0:04:36.22    \nframe=  120 fps=0.4 q=35.8 size=    1792KiB time=00:00:03.93 bitrate=3732.3kbits/s speed=0.0142x elapsed=0:04:36.82    \nframe=  120 fps=0.4 q=35.8 size=    1792KiB time=00:00:03.93 bitrate=3732.3kbits/s speed=0.0142x elapsed=0:04:37.46    \nframe=  120 fps=0.4 q=35.8 size=    1792KiB time=00:00:03.93 bitrate=3732.3kbits/s speed=0.0141x elapsed=0:04:38.04    \nframe=  120 fps=0.4 q=35.8 size=    1792KiB time=00:00:03.93 bitrate=3732.3kbits/s speed=0.0141x elapsed=0:04:38.65    \nframe=  120 fps=0.4 q=35.8 size=    1792KiB time=00:00:03.93 bitrate=3732.3kbits/s speed=0.0141x elapsed=0:04:39.27    \nframe=  120 fps=0.4 q=35.8 size=    1792KiB time=00:00:03.93 bitrate=3732.3kbits/s speed=0.0141x elapsed=0:04:39.87    \nframe=  120 fps=0.4 q=35.8 size=    1792KiB time=00:00:03.93 bitrate=3732.3kbits/s speed=0.014x elapsed=0:04:40.42    \nframe=  121 fps=0.4 q=37.7 size=    1792KiB time=00:00:03.96 bitrate=3700.9kbits/s speed=0.0141x elapsed=0:04:40.94    \nframe=  121 fps=0.4 q=37.7 size=    1792KiB time=00:00:03.96 bitrate=3700.9kbits/s speed=0.0141x elapsed=0:04:41.49    \nframe=  122 fps=0.4 q=37.4 size=    1792KiB time=00:00:04.00 bitrate=3670.1kbits/s speed=0.0142x elapsed=0:04:42.01    \nframe=  122 fps=0.4 q=37.4 size=    1792KiB time=00:00:04.00 bitrate=3670.1kbits/s speed=0.0142x elapsed=0:04:42.54    \nframe=  122 fps=0.4 q=37.4 size=    1792KiB time=00:00:04.00 bitrate=3670.1kbits/s speed=0.0141x elapsed=0:04:43.13    \nframe=  122 fps=0.4 q=37.4 size=    1792KiB time=00:00:04.00 bitrate=3670.1kbits/s speed=0.0141x elapsed=0:04:43.70    \nframe=  123 fps=0.4 q=32.3 size=    1792KiB time=00:00:04.03 bitrate=3639.8kbits/s speed=0.0142x elapsed=0:04:44.25    \nframe=  123 fps=0.4 q=32.3 size=    1792KiB time=00:00:04.03 bitrate=3639.8kbits/s speed=0.0142x elapsed=0:04:44.83    \nframe=  123 fps=0.4 q=32.3 size=    1792KiB time=00:00:04.03 bitrate=3639.8kbits/s speed=0.0141x elapsed=0:04:45.41    \nframe=  123 fps=0.4 q=32.3 size=    1792KiB time=00:00:04.03 bitrate=3639.8kbits/s speed=0.0141x elapsed=0:04:45.97    \nframe=  124 fps=0.4 q=35.8 size=    2048KiB time=00:00:04.06 bitrate=4125.6kbits/s speed=0.0142x elapsed=0:04:46.54    \nframe=  124 fps=0.4 q=35.8 size=    2048KiB time=00:00:04.06 bitrate=4125.6kbits/s speed=0.0142x elapsed=0:04:47.07    \nframe=  124 fps=0.4 q=35.8 size=    2048KiB time=00:00:04.06 bitrate=4125.6kbits/s speed=0.0141x elapsed=0:04:47.65    \nframe=  124 fps=0.4 q=35.8 size=    2048KiB time=00:00:04.06 bitrate=4125.6kbits/s speed=0.0141x elapsed=0:04:48.23    \nframe=  124 fps=0.4 q=35.8 size=    2048KiB time=00:00:04.06 bitrate=4125.6kbits/s speed=0.0141x elapsed=0:04:48.75    \nframe=  124 fps=0.4 q=35.8 size=    2048KiB time=00:00:04.06 bitrate=4125.6kbits/s speed=0.0141x elapsed=0:04:49.27    \nframe=  124 fps=0.4 q=35.8 size=    2048KiB time=00:00:04.06 bitrate=4125.6kbits/s speed=0.014x elapsed=0:04:49.81    \nframe=  124 fps=0.4 q=35.8 size=    2048KiB time=00:00:04.06 bitrate=4125.6kbits/s speed=0.014x elapsed=0:04:50.36    \nframe=  124 fps=0.4 q=35.8 size=    2048KiB time=00:00:04.06 bitrate=4125.6kbits/s speed=0.014x elapsed=0:04:50.95    \nframe=  124 fps=0.4 q=35.8 size=    2048KiB time=00:00:04.06 bitrate=4125.6kbits/s speed=0.014x elapsed=0:04:51.50    \nframe=  124 fps=0.4 q=35.8 size=    2048KiB time=00:00:04.06 bitrate=4125.6kbits/s speed=0.0139x elapsed=0:04:52.14    \nframe=  124 fps=0.4 q=35.8 size=    2048KiB time=00:00:04.06 bitrate=4125.6kbits/s speed=0.0139x elapsed=0:04:52.71    \nframe=  124 fps=0.4 q=35.8 size=    2048KiB time=00:00:04.06 bitrate=4125.6kbits/s speed=0.0139x elapsed=0:04:53.23    \nframe=  124 fps=0.4 q=35.8 size=    2048KiB time=00:00:04.06 bitrate=4125.6kbits/s speed=0.0138x elapsed=0:04:53.75    \nframe=  126 fps=0.4 q=37.4 size=    2048KiB time=00:00:04.13 bitrate=4059.1kbits/s speed=0.014x elapsed=0:04:54.29    \nframe=  127 fps=0.4 q=37.7 size=    2048KiB time=00:00:04.16 bitrate=4026.6kbits/s speed=0.0141x elapsed=0:04:54.83    \nframe=  127 fps=0.4 q=37.7 size=    2048KiB time=00:00:04.16 bitrate=4026.6kbits/s speed=0.0141x elapsed=0:04:55.38    \nframe=  127 fps=0.4 q=37.7 size=    2048KiB time=00:00:04.16 bitrate=4026.6kbits/s speed=0.0141x elapsed=0:04:55.93    \nframe=  127 fps=0.4 q=37.7 size=    2048KiB time=00:00:04.16 bitrate=4026.6kbits/s speed=0.0141x elapsed=0:04:56.47    \nframe=  127 fps=0.4 q=37.7 size=    2048KiB time=00:00:04.16 bitrate=4026.6kbits/s speed=0.014x elapsed=0:04:57.00    \nframe=  127 fps=0.4 q=37.7 size=    2048KiB time=00:00:04.16 bitrate=4026.6kbits/s speed=0.014x elapsed=0:04:57.55    \nframe=  127 fps=0.4 q=37.7 size=    2048KiB time=00:00:04.16 bitrate=4026.6kbits/s speed=0.014x elapsed=0:04:58.08    \nframe=  127 fps=0.4 q=37.7 size=    2048KiB time=00:00:04.16 bitrate=4026.6kbits/s speed=0.014x elapsed=0:04:58.61    \nframe=  127 fps=0.4 q=37.7 size=    2048KiB time=00:00:04.16 bitrate=4026.6kbits/s speed=0.0139x elapsed=0:04:59.15    \nframe=  127 fps=0.4 q=37.7 size=    2048KiB time=00:00:04.16 bitrate=4026.6kbits/s speed=0.0139x elapsed=0:04:59.67    \nframe=  127 fps=0.4 q=37.7 size=    2048KiB time=00:00:04.16 bitrate=4026.6kbits/s speed=0.0139x elapsed=0:05:00.20    \nframe=  127 fps=0.4 q=37.7 size=    2048KiB time=00:00:04.16 bitrate=4026.6kbits/s speed=0.0139x elapsed=0:05:00.76    \nframe=  127 fps=0.4 q=37.7 size=    2048KiB time=00:00:04.16 bitrate=4026.6kbits/s speed=0.0138x elapsed=0:05:01.31    \nframe=  127 fps=0.4 q=37.7 size=    2048KiB time=00:00:04.16 bitrate=4026.6kbits/s speed=0.0138x elapsed=0:05:01.84    \nframe=  127 fps=0.4 q=37.7 size=    2048KiB time=00:00:04.16 bitrate=4026.6kbits/s speed=0.0138x elapsed=0:05:02.35    \nframe=  128 fps=0.4 q=33.4 size=    2048KiB time=00:00:04.20 bitrate=3994.7kbits/s speed=0.0139x elapsed=0:05:02.89    \nframe=  128 fps=0.4 q=33.4 size=    2048KiB time=00:00:04.20 bitrate=3994.7kbits/s speed=0.0138x elapsed=0:05:03.44    \nframe=  128 fps=0.4 q=33.4 size=    2048KiB time=00:00:04.20 bitrate=3994.7kbits/s speed=0.0138x elapsed=0:05:03.99    \nframe=  129 fps=0.4 q=34.2 size=    2048KiB time=00:00:04.20 bitrate=3994.7kbits/s speed=0.0138x elapsed=0:05:04.55    \nframe=  129 fps=0.4 q=34.2 size=    2048KiB time=00:00:04.23 bitrate=3963.2kbits/s speed=0.0139x elapsed=0:05:05.07    \nframe=  129 fps=0.4 q=34.2 size=    2048KiB time=00:00:04.23 bitrate=3963.2kbits/s speed=0.0139x elapsed=0:05:05.59    \nframe=  129 fps=0.4 q=34.2 size=    2048KiB time=00:00:04.23 bitrate=3963.2kbits/s speed=0.0138x elapsed=0:05:06.11    \nframe=  129 fps=0.4 q=34.2 size=    2048KiB time=00:00:04.23 bitrate=3963.2kbits/s speed=0.0138x elapsed=0:05:06.72    \nframe=  129 fps=0.4 q=34.2 size=    2048KiB time=00:00:04.23 bitrate=3963.2kbits/s speed=0.0138x elapsed=0:05:07.27    \nframe=  129 fps=0.4 q=34.2 size=    2048KiB time=00:00:04.23 bitrate=3963.2kbits/s speed=0.0138x elapsed=0:05:07.79    \nframe=  129 fps=0.4 q=34.2 size=    2048KiB time=00:00:04.23 bitrate=3963.2kbits/s speed=0.0137x elapsed=0:05:08.34    \nframe=  129 fps=0.4 q=34.2 size=    2048KiB time=00:00:04.23 bitrate=3963.2kbits/s speed=0.0137x elapsed=0:05:08.88    \nframe=  129 fps=0.4 q=34.2 size=    2048KiB time=00:00:04.23 bitrate=3963.2kbits/s speed=0.0137x elapsed=0:05:09.45    \nframe=  129 fps=0.4 q=34.2 size=    2048KiB time=00:00:04.23 bitrate=3963.2kbits/s speed=0.0137x elapsed=0:05:09.98    \nframe=  129 fps=0.4 q=34.2 size=    2048KiB time=00:00:04.23 bitrate=3963.2kbits/s speed=0.0136x elapsed=0:05:10.51    \nframe=  130 fps=0.4 q=37.6 size=    2048KiB time=00:00:04.26 bitrate=3932.2kbits/s speed=0.0137x elapsed=0:05:11.04    \nframe=  131 fps=0.4 q=37.7 size=    2048KiB time=00:00:04.30 bitrate=3901.8kbits/s speed=0.0138x elapsed=0:05:11.57    \nframe=  131 fps=0.4 q=37.7 size=    2048KiB time=00:00:04.30 bitrate=3901.8kbits/s speed=0.0138x elapsed=0:05:12.10    \nframe=  132 fps=0.4 q=37.4 size=    2048KiB time=00:00:04.33 bitrate=3871.7kbits/s speed=0.0139x elapsed=0:05:12.66    \nframe=  132 fps=0.4 q=37.4 size=    2048KiB time=00:00:04.33 bitrate=3871.7kbits/s speed=0.0138x elapsed=0:05:13.20    \nframe=  132 fps=0.4 q=37.4 size=    2048KiB time=00:00:04.33 bitrate=3871.7kbits/s speed=0.0138x elapsed=0:05:13.75    \nframe=  132 fps=0.4 q=37.4 size=    2048KiB time=00:00:04.33 bitrate=3871.7kbits/s speed=0.0138x elapsed=0:05:14.26    \nframe=  132 fps=0.4 q=37.4 size=    2048KiB time=00:00:04.33 bitrate=3871.7kbits/s speed=0.0138x elapsed=0:05:14.80    \nframe=  132 fps=0.4 q=37.4 size=    2048KiB time=00:00:04.33 bitrate=3871.7kbits/s speed=0.0137x elapsed=0:05:15.33    \nframe=  132 fps=0.4 q=37.4 size=    2048KiB time=00:00:04.33 bitrate=3871.7kbits/s speed=0.0137x elapsed=0:05:15.86    \nframe=  132 fps=0.4 q=37.4 size=    2048KiB time=00:00:04.33 bitrate=3871.7kbits/s speed=0.0137x elapsed=0:05:16.40    \nframe=  132 fps=0.4 q=37.4 size=    2048KiB time=00:00:04.33 bitrate=3871.7kbits/s speed=0.0137x elapsed=0:05:16.94    \nframe=  132 fps=0.4 q=37.4 size=    2048KiB time=00:00:04.33 bitrate=3871.7kbits/s speed=0.0136x elapsed=0:05:17.48    \nframe=  132 fps=0.4 q=37.4 size=    2048KiB time=00:00:04.33 bitrate=3871.7kbits/s speed=0.0136x elapsed=0:05:18.00    \nframe=  133 fps=0.4 q=33.1 size=    2048KiB time=00:00:04.36 bitrate=3842.2kbits/s speed=0.0137x elapsed=0:05:18.51    \nframe=  133 fps=0.4 q=33.1 size=    2048KiB time=00:00:04.36 bitrate=3842.2kbits/s speed=0.0137x elapsed=0:05:19.02    \nframe=  133 fps=0.4 q=33.1 size=    2048KiB time=00:00:04.36 bitrate=3842.2kbits/s speed=0.0137x elapsed=0:05:19.55    \nframe=  133 fps=0.4 q=33.1 size=    2048KiB time=00:00:04.36 bitrate=3842.2kbits/s speed=0.0136x elapsed=0:05:20.11    \nframe=  133 fps=0.4 q=33.1 size=    2048KiB time=00:00:04.36 bitrate=3842.2kbits/s speed=0.0136x elapsed=0:05:20.64    \nframe=  134 fps=0.4 q=37.2 size=    2048KiB time=00:00:04.40 bitrate=3813.1kbits/s speed=0.0137x elapsed=0:05:21.15    \nframe=  134 fps=0.4 q=37.2 size=    2048KiB time=00:00:04.40 bitrate=3813.1kbits/s speed=0.0137x elapsed=0:05:21.66    \nframe=  134 fps=0.4 q=37.2 size=    2048KiB time=00:00:04.40 bitrate=3813.1kbits/s speed=0.0137x elapsed=0:05:22.18    \nframe=  134 fps=0.4 q=37.2 size=    2048KiB time=00:00:04.40 bitrate=3813.1kbits/s speed=0.0136x elapsed=0:05:22.69    \nframe=  134 fps=0.4 q=37.2 size=    2048KiB time=00:00:04.40 bitrate=3813.1kbits/s speed=0.0136x elapsed=0:05:23.21    \nframe=  134 fps=0.4 q=37.2 size=    2048KiB time=00:00:04.40 bitrate=3813.1kbits/s speed=0.0136x elapsed=0:05:23.73    \nframe=  135 fps=0.4 q=38.0 size=    2048KiB time=00:00:04.43 bitrate=3784.4kbits/s speed=0.0137x elapsed=0:05:24.27    \nframe=  135 fps=0.4 q=38.0 size=    2048KiB time=00:00:04.43 bitrate=3784.4kbits/s speed=0.0136x elapsed=0:05:24.81    \nframe=  135 fps=0.4 q=38.0 size=    2048KiB time=00:00:04.43 bitrate=3784.4kbits/s speed=0.0136x elapsed=0:05:25.33    \nframe=  137 fps=0.4 q=38.3 size=    2048KiB time=00:00:04.50 bitrate=3728.3kbits/s speed=0.0138x elapsed=0:05:25.86    \nframe=  137 fps=0.4 q=38.3 size=    2048KiB time=00:00:04.50 bitrate=3728.3kbits/s speed=0.0138x elapsed=0:05:26.38    \nframe=  137 fps=0.4 q=38.3 size=    2048KiB time=00:00:04.50 bitrate=3728.3kbits/s speed=0.0138x elapsed=0:05:26.92    \nframe=  137 fps=0.4 q=38.3 size=    2048KiB time=00:00:04.50 bitrate=3728.3kbits/s speed=0.0137x elapsed=0:05:27.44    \nframe=  137 fps=0.4 q=38.3 size=    2048KiB time=00:00:04.50 bitrate=3728.3kbits/s speed=0.0137x elapsed=0:05:27.97    \nframe=  137 fps=0.4 q=38.3 size=    2048KiB time=00:00:04.50 bitrate=3728.3kbits/s speed=0.0137x elapsed=0:05:28.49    \nframe=  137 fps=0.4 q=38.3 size=    2048KiB time=00:00:04.50 bitrate=3728.3kbits/s speed=0.0137x elapsed=0:05:29.02    \nframe=  138 fps=0.4 q=32.5 size=    2048KiB time=00:00:04.53 bitrate=3700.9kbits/s speed=0.0138x elapsed=0:05:29.54    \nframe=  138 fps=0.4 q=32.5 size=    2048KiB time=00:00:04.53 bitrate=3700.9kbits/s speed=0.0137x elapsed=0:05:30.07    \nframe=  138 fps=0.4 q=32.5 size=    2048KiB time=00:00:04.53 bitrate=3700.9kbits/s speed=0.0137x elapsed=0:05:30.65    \nframe=  139 fps=0.4 q=35.4 size=    2304KiB time=00:00:04.56 bitrate=4133.2kbits/s speed=0.0138x elapsed=0:05:31.22    \nframe=  139 fps=0.4 q=35.4 size=    2304KiB time=00:00:04.56 bitrate=4133.2kbits/s speed=0.0138x elapsed=0:05:31.81    \nframe=  139 fps=0.4 q=35.4 size=    2304KiB time=00:00:04.56 bitrate=4133.2kbits/s speed=0.0137x elapsed=0:05:32.44    \nframe=  139 fps=0.4 q=35.4 size=    2304KiB time=00:00:04.56 bitrate=4133.2kbits/s speed=0.0137x elapsed=0:05:33.04    \nframe=  139 fps=0.4 q=35.4 size=    2304KiB time=00:00:04.56 bitrate=4133.2kbits/s speed=0.0137x elapsed=0:05:33.57    \nframe=  139 fps=0.4 q=35.4 size=    2304KiB time=00:00:04.56 bitrate=4133.2kbits/s speed=0.0137x elapsed=0:05:34.10    \nframe=  139 fps=0.4 q=35.4 size=    2304KiB time=00:00:04.56 bitrate=4133.2kbits/s speed=0.0136x elapsed=0:05:34.63    \nframe=  139 fps=0.4 q=35.4 size=    2304KiB time=00:00:04.56 bitrate=4133.2kbits/s speed=0.0136x elapsed=0:05:35.15    \nframe=  139 fps=0.4 q=35.4 size=    2304KiB time=00:00:04.56 bitrate=4133.2kbits/s speed=0.0136x elapsed=0:05:35.73    \nframe=  139 fps=0.4 q=35.4 size=    2304KiB time=00:00:04.56 bitrate=4133.2kbits/s speed=0.0136x elapsed=0:05:36.32    \nframe=  139 fps=0.4 q=35.4 size=    2304KiB time=00:00:04.56 bitrate=4133.2kbits/s speed=0.0136x elapsed=0:05:36.91    \nframe=  139 fps=0.4 q=35.4 size=    2304KiB time=00:00:04.56 bitrate=4133.2kbits/s speed=0.0135x elapsed=0:05:37.51    \nframe=  139 fps=0.4 q=35.4 size=    2304KiB time=00:00:04.56 bitrate=4133.2kbits/s speed=0.0135x elapsed=0:05:38.06    \nframe=  139 fps=0.4 q=35.4 size=    2304KiB time=00:00:04.56 bitrate=4133.2kbits/s speed=0.0135x elapsed=0:05:38.63    \nframe=  139 fps=0.4 q=35.4 size=    2304KiB time=00:00:04.56 bitrate=4133.2kbits/s speed=0.0135x elapsed=0:05:39.18    \nframe=  140 fps=0.4 q=37.8 size=    2304KiB time=00:00:04.60 bitrate=4103.2kbits/s speed=0.0135x elapsed=0:05:39.73    \nframe=  140 fps=0.4 q=37.8 size=    2304KiB time=00:00:04.60 bitrate=4103.2kbits/s speed=0.0135x elapsed=0:05:40.25    \nframe=  141 fps=0.4 q=38.1 size=    2304KiB time=00:00:04.63 bitrate=4073.7kbits/s speed=0.0136x elapsed=0:05:40.80    \nframe=  141 fps=0.4 q=38.1 size=    2304KiB time=00:00:04.63 bitrate=4073.7kbits/s speed=0.0136x elapsed=0:05:41.31    \nframe=  141 fps=0.4 q=38.1 size=    2304KiB time=00:00:04.63 bitrate=4073.7kbits/s speed=0.0136x elapsed=0:05:41.84    \nframe=  141 fps=0.4 q=38.1 size=    2304KiB time=00:00:04.63 bitrate=4073.7kbits/s speed=0.0135x elapsed=0:05:42.40    \nframe=  141 fps=0.4 q=38.1 size=    2304KiB time=00:00:04.63 bitrate=4073.7kbits/s speed=0.0135x elapsed=0:05:42.94    \nframe=  142 fps=0.4 q=33.5 size=    2304KiB time=00:00:04.66 bitrate=4044.6kbits/s speed=0.0136x elapsed=0:05:43.51    \nframe=  142 fps=0.4 q=33.5 size=    2304KiB time=00:00:04.66 bitrate=4044.6kbits/s speed=0.0136x elapsed=0:05:44.04    \nframe=  142 fps=0.4 q=33.5 size=    2304KiB time=00:00:04.66 bitrate=4044.6kbits/s speed=0.0135x elapsed=0:05:44.59    \nframe=  142 fps=0.4 q=33.5 size=    2304KiB time=00:00:04.66 bitrate=4044.6kbits/s speed=0.0135x elapsed=0:05:45.11    \nframe=  142 fps=0.4 q=33.5 size=    2304KiB time=00:00:04.66 bitrate=4044.6kbits/s speed=0.0135x elapsed=0:05:45.62    \nframe=  142 fps=0.4 q=33.5 size=    2304KiB time=00:00:04.66 bitrate=4044.6kbits/s speed=0.0135x elapsed=0:05:46.13    \nframe=  142 fps=0.4 q=33.5 size=    2304KiB time=00:00:04.66 bitrate=4044.6kbits/s speed=0.0135x elapsed=0:05:46.65    \nframe=  142 fps=0.4 q=33.5 size=    2304KiB time=00:00:04.66 bitrate=4044.6kbits/s speed=0.0134x elapsed=0:05:47.17    \nframe=  143 fps=0.4 q=34.7 size=    2304KiB time=00:00:04.70 bitrate=4015.9kbits/s speed=0.0135x elapsed=0:05:47.69    \nframe=  143 fps=0.4 q=34.7 size=    2304KiB time=00:00:04.70 bitrate=4015.9kbits/s speed=0.0135x elapsed=0:05:48.22    \nframe=  143 fps=0.4 q=34.7 size=    2304KiB time=00:00:04.70 bitrate=4015.9kbits/s speed=0.0135x elapsed=0:05:48.73    \nframe=  143 fps=0.4 q=34.7 size=    2304KiB time=00:00:04.70 bitrate=4015.9kbits/s speed=0.0135x elapsed=0:05:49.26    \nframe=  144 fps=0.4 q=38.0 size=    2304KiB time=00:00:04.73 bitrate=3987.6kbits/s speed=0.0135x elapsed=0:05:49.77    \nframe=  145 fps=0.4 q=38.1 size=    2304KiB time=00:00:04.76 bitrate=3959.7kbits/s speed=0.0136x elapsed=0:05:50.30    \nframe=  145 fps=0.4 q=38.1 size=    2304KiB time=00:00:04.76 bitrate=3959.7kbits/s speed=0.0136x elapsed=0:05:50.82    \nframe=  145 fps=0.4 q=38.1 size=    2304KiB time=00:00:04.76 bitrate=3959.7kbits/s speed=0.0136x elapsed=0:05:51.35    \nframe=  145 fps=0.4 q=38.1 size=    2304KiB time=00:00:04.76 bitrate=3959.7kbits/s speed=0.0135x elapsed=0:05:51.87    \nframe=  146 fps=0.4 q=34.4 size=    2304KiB time=00:00:04.80 bitrate=3932.2kbits/s speed=0.0136x elapsed=0:05:52.39    \nframe=  146 fps=0.4 q=34.4 size=    2304KiB time=00:00:04.80 bitrate=3932.2kbits/s speed=0.0136x elapsed=0:05:52.92    \nframe=  146 fps=0.4 q=34.4 size=    2304KiB time=00:00:04.80 bitrate=3932.2kbits/s speed=0.0136x elapsed=0:05:53.44    \nframe=  146 fps=0.4 q=34.4 size=    2304KiB time=00:00:04.80 bitrate=3932.2kbits/s speed=0.0136x elapsed=0:05:53.95    \nframe=  146 fps=0.4 q=34.4 size=    2304KiB time=00:00:04.80 bitrate=3932.2kbits/s speed=0.0135x elapsed=0:05:54.48    \nframe=  146 fps=0.4 q=34.4 size=    2304KiB time=00:00:04.80 bitrate=3932.2kbits/s speed=0.0135x elapsed=0:05:55.02    \nframe=  147 fps=0.4 q=36.4 size=    2304KiB time=00:00:04.83 bitrate=3905.1kbits/s speed=0.0136x elapsed=0:05:55.53    \nframe=  147 fps=0.4 q=36.4 size=    2304KiB time=00:00:04.83 bitrate=3905.1kbits/s speed=0.0136x elapsed=0:05:56.03    \nframe=  147 fps=0.4 q=36.4 size=    2304KiB time=00:00:04.83 bitrate=3905.1kbits/s speed=0.0136x elapsed=0:05:56.56    \nframe=  147 fps=0.4 q=36.4 size=    2304KiB time=00:00:04.83 bitrate=3905.1kbits/s speed=0.0135x elapsed=0:05:57.08    \nframe=  147 fps=0.4 q=36.4 size=    2304KiB time=00:00:04.83 bitrate=3905.1kbits/s speed=0.0135x elapsed=0:05:57.61    \n[mp4 @ 00000260260f9740] Starting second pass: moving the moov atom to the beginning of the file\n[out#0/mp4 @ 00000260260eabc0] video:2511KiB audio:0KiB subtitle:0KiB other streams:0KiB global headers:2KiB muxing overhead: 0.205698%\nframe=  150 fps=0.4 q=37.4 Lsize=    2516KiB time=00:00:04.93 bitrate=4177.4kbits/s speed=0.0138x elapsed=0:05:57.85    \nx265 [info]: frame I:      1, Avg QP:31.82  kb/s: 7749.84 \nx265 [info]: frame P:     37, Avg QP:32.65  kb/s: 6665.82 \nx265 [info]: frame B:    112, Avg QP:36.34  kb/s: 3236.19 \nx265 [info]: Weighted P-Frames: Y:24.3% UV:18.9%\n\nencoded 150 frames in 357.62s (0.42 fps), 4112.26 kb/s, Avg QP:35.40\n",
  "seconds": 358.23653507232666,
  "probe_out": {}
}